<?xml version="1.0" encoding="utf-8"?>
<!-- Generator: Adobe Illustrator 20.1.0, SVG Export Plug-In . SVG Version: 6.00 Build 0)  -->
<svg version="1.1" id="Capa_1" xmlns="http://www.w3.org/2000/svg" xmlns:xlink="http://www.w3.org/1999/xlink" x="0px" y="0px"
	 viewBox="0 0 516.1 274.1" style="enable-background:new 0 0 516.1 274.1;" xml:space="preserve">
<style type="text/css">
	.st0{fill:#F2F2F2;}
	.st1{fill:#FFFFFF;stroke:#BFBFBF;stroke-width:0.25;stroke-miterlimit:10;}
	.st2{fill:#FFFFFF;stroke:#BFBFBF;stroke-width:0.1857;stroke-miterlimit:10;}
	.st3{fill:#444444;}
	.st4{fill:#FFFFFF;}
	.st5{opacity:0.5;}
	.st6{opacity:0.25;}
	.st7{opacity:0.25;fill:none;stroke:#010400;stroke-width:0.5;stroke-miterlimit:10;}
	.st8{opacity:0.5;fill:none;stroke:#FFFFFF;stroke-miterlimit:10;}
	.st9{fill:#5FCDAA;}
	.st10{fill:#EFF0F2;}
	.st11{fill-rule:evenodd;clip-rule:evenodd;fill:#E6E6E6;}
	.st12{fill-rule:evenodd;clip-rule:evenodd;fill:#FFFFFF;}
	.st13{fill-rule:evenodd;clip-rule:evenodd;fill:#4D4D4D;}
	.st14{fill-rule:evenodd;clip-rule:evenodd;fill:#B3B3B3;}
	.st15{fill-rule:evenodd;clip-rule:evenodd;fill:#CCCCCC;}
	.st16{fill-rule:evenodd;clip-rule:evenodd;}
	.st17{fill-rule:evenodd;clip-rule:evenodd;fill:#F2CAA9;}
	.st18{fill-rule:evenodd;clip-rule:evenodd;fill:#3F73A1;}
	.st19{fill-rule:evenodd;clip-rule:evenodd;fill:#FFCD61;}
	.st20{fill-rule:evenodd;clip-rule:evenodd;fill:#FFAE00;}
	.st21{fill-rule:evenodd;clip-rule:evenodd;fill:#886734;}
	.st22{fill-rule:evenodd;clip-rule:evenodd;fill:#694F28;}
	.st23{fill-rule:evenodd;clip-rule:evenodd;fill:#BD9D6E;}
	.st24{fill-rule:evenodd;clip-rule:evenodd;fill:#F9A818;}
	.st25{fill-rule:evenodd;clip-rule:evenodd;fill:#5896CC;}
	.st26{fill:#4C8EB4;}
	.st27{fill:#2C577D;}
	.st28{fill:#F9A818;}
	.st29{fill-rule:evenodd;clip-rule:evenodd;fill:#2C577D;}
	.st30{fill-rule:evenodd;clip-rule:evenodd;fill:#F2837B;}
	.st31{fill-rule:evenodd;clip-rule:evenodd;fill:#EE4E42;}
	.st32{fill-rule:evenodd;clip-rule:evenodd;fill:#FFEABD;}
	.st33{fill:#444242;}
	.st34{opacity:0.25;fill:#444444;}
	.st35{fill:#FFFFFF;stroke:#BFBFBF;stroke-width:0.2217;stroke-miterlimit:10;}
	.st36{fill:#ED1941;}
	.st37{fill:none;stroke:#9A999E;stroke-width:0.2291;stroke-miterlimit:10;}
	.st38{fill:#F1F2F2;}
	.st39{fill:#211915;}
	.st40{fill:#FF6EDC;}
	.st41{fill:#CD2849;stroke:#444444;stroke-width:0.2291;stroke-miterlimit:10;}
	.st42{clip-path:url(#SVGID_4_);}
	.st43{clip-path:url(#SVGID_8_);}
	.st44{clip-path:url(#SVGID_12_);}
	.st45{clip-path:url(#SVGID_16_);}
	.st46{clip-path:url(#SVGID_20_);}
	.st47{clip-path:url(#SVGID_24_);}
	.st48{clip-path:url(#SVGID_28_);}
	.st49{clip-path:url(#SVGID_32_);}
	.st50{clip-path:url(#SVGID_36_);}
	.st51{clip-path:url(#SVGID_40_);}
	.st52{clip-path:url(#SVGID_44_);}
	.st53{clip-path:url(#SVGID_48_);}
	.st54{fill:none;stroke:#000000;stroke-width:0.25;stroke-miterlimit:10;}
</style>
<g>
	<g>
		<path class="st10" d="M359.5,77.6c20.5-8,46.7-13.3,69.1-12.1c4.9,0.3,9.5,0.9,13.9,1.8v1.8c-4.4-1-9.1-1.6-14-1.8
			c-22.1-1.2-48,4.1-68.3,12L359.5,77.6L359.5,77.6z M442.5,164.9c-1.3,0.5-2.7,0.8-4,1c-7.8,1.3-15-1.7-19.8-6.7
			c-4.8-5-7.2-12.2-5.6-19.2c1.9-8.5,9.6-16.8,25.9-21.3c1.2-0.3,2.3-0.6,3.4-0.8v1.8c-1,0.2-2,0.5-3,0.7
			c-15.6,4.3-22.9,12-24.7,19.9c-1.5,6.5,0.8,13,5.2,17.6c4.4,4.6,11,7.3,18.2,6.2c1.4-0.2,2.8-0.6,4.3-1.1V164.9z M442.5,67.3
			c6.8,1.4,12.9,3.7,17.9,7c8.5,5.5,14.1,13.6,15.3,25.2c0.7,6.9-0.2,15-3.1,24.4c1.4,1.2,2.7,2.6,3.9,4.1c4,5,6.9,11.3,8.8,18.4
			c6,21.8,3.2,51-1.6,70.4l-1.8,8.5l-1.1-3.4l1.1-5.6c4.7-19.2,7.4-48.1,1.6-69.5c-1.9-6.9-4.6-13-8.5-17.7c-1-1.2-2-2.3-3.1-3.3
			c-0.7,2.2-1.5,4.5-2.4,6.8c-7.7,19.6-17.7,29.2-27.1,32.4V163c8.8-3.3,18.1-12.6,25.4-31.1c1-2.6,1.9-5,2.6-7.4
			c-2.9-2.3-6.3-4.1-10.2-5c-5-1.2-10.9-1.3-17.8,0.3v-1.8c7-1.5,13-1.5,18.2-0.2c3.9,1,7.4,2.7,10.4,4.9c2.6-8.9,3.4-16.5,2.8-23
			c-1.1-11-6.4-18.7-14.4-23.9c-4.8-3.1-10.6-5.3-17-6.7V67.3z"/>
		<g>
			
				<ellipse transform="matrix(0.9821 -0.1884 0.1884 0.9821 -32.062 95.9144)" class="st11" cx="488.6" cy="216.7" rx="20.5" ry="26.9"/>
			
				<ellipse transform="matrix(0.9821 -0.1884 0.1884 0.9821 -31.5056 95.7564)" class="st12" cx="488.1" cy="213.6" rx="17" ry="22.2"/>
			<path class="st13" d="M483.6,190.3c0.1,0,0.3-0.1,0.4-0.1l2.6,13.8l-0.9,0.2l-2.6-13.8C483.3,190.3,483.4,190.3,483.6,190.3z"/>
			<path class="st13" d="M482.7,194.1l3.1-0.6c0.7-0.1,1.4,0.3,1.5,1l2.7,14.2c0.1,0.7-0.3,1.4-1,1.5l-3.1,0.6
				c-0.7,0.1-1.4-0.3-1.5-1l-2.7-14.2C481.5,195,482,194.3,482.7,194.1z"/>
			<path class="st14" d="M483.6,195l1.7-0.3c0.4-0.1,0.8,0.2,0.8,0.6l2.6,13.4c0.1,0.4-0.2,0.8-0.6,0.8l-1.7,0.3
				c-0.4,0.1-0.8-0.2-0.8-0.6l-2.6-13.4C483,195.5,483.2,195.1,483.6,195z"/>
		</g>
	</g>
	<g>
		<path class="st12" d="M146.7,45.9h229.5c2.9,0,5.4,2.4,5.4,5.4v148.9c0,2.9-2.4,5.4-5.4,5.4H146.7c-2.9,0-5.4-2.4-5.4-5.4V51.3
			C141.4,48.3,143.8,45.9,146.7,45.9z"/>
		<path class="st14" d="M157.1,45.9h13.3v7.6c0,0.7-0.6,1.3-1.3,1.3h-10.8c-0.7,0-1.3-0.6-1.3-1.3V45.9z"/>
		<path class="st14" d="M352.5,45.9h13.3v7.6c0,0.7-0.6,1.3-1.3,1.3h-10.8c-0.7,0-1.2-0.6-1.2-1.3V45.9z"/>
		<path class="st15" d="M124.5,0L398,0c6.6,0,8.6,3.1,5.9,7.3L381,43.2H141.4L121,11C116.4,3.7,117.3,0,124.5,0z"/>
		<polygon class="st16" points="389.9,10.9 373.2,38.4 149.3,38.4 132.5,10.9 		"/>
		<path class="st12" d="M123,1h277.1c0.6,0,1.1,0.5,1.1,1.1v0c0,0.6-0.5,1.1-1.1,1.1L123,3.1c-0.6,0-1.1-0.5-1.1-1.1v0
			C121.9,1.5,122.4,1,123,1z"/>
		<path class="st12" d="M159,39h9.5c0.6,0,1.1,0.5,1.1,1.1v11.3c0,0.6-0.5,1.1-1.1,1.1H159c-0.6,0-1.1-0.5-1.1-1.1V40.1
			C157.9,39.5,158.4,39,159,39z"/>
		<path class="st12" d="M354.4,39h9.5c0.6,0,1.1,0.5,1.1,1.1v11.3c0,0.6-0.5,1.1-1.1,1.1h-9.5c-0.6,0-1.1-0.5-1.1-1.1V40.1
			C353.3,39.5,353.8,39,354.4,39z"/>
		<path class="st15" d="M358.2,67.2h7.4c0.8,0,1.5,0.7,1.5,1.5v5.5c0,0.8-0.7,1.5-1.5,1.5h-7.4c-0.8,0-1.5-0.7-1.5-1.5v-5.5
			C356.7,67.9,357.4,67.2,358.2,67.2z"/>
		<path class="st15" d="M358.6,77.7h6.7c1,0,1.9,0.8,1.9,1.9V87c0,1-0.8,1.9-1.9,1.9h-6.7c-1,0-1.9-0.8-1.9-1.9v-7.5
			C356.7,78.5,357.5,77.7,358.6,77.7z"/>
		<path class="st15" d="M358.6,90.8h6.7c1,0,1.9,0.8,1.9,1.9v7.5c0,1-0.8,1.9-1.9,1.9h-6.7c-1,0-1.9-0.8-1.9-1.9v-7.5
			C356.7,91.7,357.5,90.8,358.6,90.8z"/>
		<path class="st15" d="M358.6,104h6.7c1,0,1.9,0.8,1.9,1.9v7.5c0,1-0.8,1.9-1.9,1.9h-6.7c-1,0-1.9-0.8-1.9-1.9v-7.5
			C356.7,104.8,357.5,104,358.6,104z"/>
		<path class="st15" d="M358.6,117.1h6.7c1,0,1.9,0.8,1.9,1.9v7.5c0,1-0.8,1.9-1.9,1.9h-6.7c-1,0-1.9-0.8-1.9-1.9V119
			C356.7,118,357.5,117.1,358.6,117.1z"/>
		<path class="st15" d="M358.6,130.3h6.7c1,0,1.9,0.8,1.9,1.9v7.5c0,1-0.8,1.9-1.9,1.9h-6.7c-1,0-1.9-0.8-1.9-1.9v-7.5
			C356.7,131.1,357.5,130.3,358.6,130.3z"/>
		<path class="st15" d="M345.1,67.2h7.4c0.8,0,1.5,0.7,1.5,1.5v5.5c0,0.8-0.7,1.5-1.5,1.5h-7.4c-0.8,0-1.5-0.7-1.5-1.5v-5.5
			C343.6,67.9,344.3,67.2,345.1,67.2z"/>
		<path class="st15" d="M333.5,77.7h18.6c1.1,0,2,0.9,2,2v7.2c0,1.1-0.9,2-2,2h-18.6c-1.1,0-2-0.9-2-2v-7.2
			C331.5,78.6,332.4,77.7,333.5,77.7z"/>
		<path class="st15" d="M342,90.8h10c1.1,0,2,0.9,2,2v7.2c0,1.1-0.9,2-2,2h-10c-1.1,0-2-0.9-2-2v-7.2C340,91.7,340.9,90.8,342,90.8z
			"/>
		<path class="st15" d="M332,104h20c1.1,0,2,0.9,2,2v7.2c0,1.1-0.9,2-2,2h-20c-1.1,0-2-0.9-2-2V106C330,104.9,330.9,104,332,104z"/>
		<path class="st15" d="M345.5,117.1h6.7c1,0,1.9,0.8,1.9,1.9v7.5c0,1-0.8,1.9-1.9,1.9h-6.7c-1,0-1.9-0.8-1.9-1.9V119
			C343.6,118,344.4,117.1,345.5,117.1z"/>
		<path class="st15" d="M345.5,130.3h6.7c1,0,1.9,0.8,1.9,1.9v7.5c0,1-0.8,1.9-1.9,1.9h-6.7c-1,0-1.9-0.8-1.9-1.9v-7.5
			C343.6,131.1,344.4,130.3,345.5,130.3z"/>
		<path class="st15" d="M333,67.2h6.4c0.8,0,1.5,0.7,1.5,1.5v5.5c0,0.8-0.7,1.5-1.5,1.5H333c-0.8,0-1.5-0.7-1.5-1.5v-5.5
			C331.5,67.9,332.2,67.2,333,67.2z"/>
		<path class="st15" d="M320.7,67.2h6.4c0.8,0,1.5,0.7,1.5,1.5v5.5c0,0.8-0.7,1.5-1.5,1.5h-6.4c-0.8,0-1.5-0.7-1.5-1.5v-5.5
			C319.2,67.9,319.9,67.2,320.7,67.2z"/>
		<path class="st15" d="M308.4,67.2h6.4c0.8,0,1.5,0.7,1.5,1.5v5.5c0,0.8-0.7,1.5-1.5,1.5h-6.4c-0.8,0-1.5-0.7-1.5-1.5v-5.5
			C306.9,67.9,307.6,67.2,308.4,67.2z"/>
		<path class="st15" d="M296.2,67.2h6.4c0.8,0,1.5,0.7,1.5,1.5v5.5c0,0.8-0.7,1.5-1.5,1.5h-6.4c-0.8,0-1.5-0.7-1.5-1.5v-5.5
			C294.6,67.9,295.3,67.2,296.2,67.2z"/>
		<path class="st15" d="M283.9,67.2h6.4c0.8,0,1.5,0.7,1.5,1.5v5.5c0,0.8-0.7,1.5-1.5,1.5h-6.4c-0.8,0-1.5-0.7-1.5-1.5v-5.5
			C282.3,67.9,283,67.2,283.9,67.2z"/>
		<path class="st15" d="M271.6,67.2h6.4c0.8,0,1.5,0.7,1.5,1.5v5.5c0,0.8-0.7,1.5-1.5,1.5h-6.4c-0.8,0-1.5-0.7-1.5-1.5v-5.5
			C270,67.9,270.7,67.2,271.6,67.2z"/>
		<path class="st15" d="M259.3,67.2h6.4c0.8,0,1.5,0.7,1.5,1.5v5.5c0,0.8-0.7,1.5-1.5,1.5h-6.4c-0.8,0-1.5-0.7-1.5-1.5v-5.5
			C257.7,67.9,258.4,67.2,259.3,67.2z"/>
		<path class="st15" d="M247,67.2h6.4c0.8,0,1.5,0.7,1.5,1.5v5.5c0,0.8-0.7,1.5-1.5,1.5H247c-0.8,0-1.5-0.7-1.5-1.5v-5.5
			C245.4,67.9,246.1,67.2,247,67.2z"/>
		<path class="st15" d="M234.7,67.2h6.4c0.8,0,1.5,0.7,1.5,1.5v5.5c0,0.8-0.7,1.5-1.5,1.5h-6.4c-0.8,0-1.5-0.7-1.5-1.5v-5.5
			C233.2,67.9,233.8,67.2,234.7,67.2z"/>
		<path class="st15" d="M222.4,67.2h6.4c0.8,0,1.5,0.7,1.5,1.5v5.5c0,0.8-0.7,1.5-1.5,1.5h-6.4c-0.8,0-1.5-0.7-1.5-1.5v-5.5
			C220.9,67.9,221.5,67.2,222.4,67.2z"/>
		<path class="st15" d="M210.1,67.2h6.4c0.8,0,1.5,0.7,1.5,1.5v5.5c0,0.8-0.7,1.5-1.5,1.5h-6.4c-0.8,0-1.5-0.7-1.5-1.5v-5.5
			C208.6,67.9,209.3,67.2,210.1,67.2z"/>
		<path class="st15" d="M197.8,67.2h6.4c0.8,0,1.5,0.7,1.5,1.5v5.5c0,0.8-0.7,1.5-1.5,1.5h-6.4c-0.8,0-1.5-0.7-1.5-1.5v-5.5
			C196.3,67.9,197,67.2,197.8,67.2z"/>
		<path class="st15" d="M185.5,67.2h6.4c0.8,0,1.5,0.7,1.5,1.5v5.5c0,0.8-0.7,1.5-1.5,1.5h-6.4c-0.8,0-1.5-0.7-1.5-1.5v-5.5
			C184,67.9,184.7,67.2,185.5,67.2z"/>
		<path class="st15" d="M173.2,67.2h6.4c0.8,0,1.5,0.7,1.5,1.5v5.5c0,0.8-0.7,1.5-1.5,1.5h-6.4c-0.8,0-1.5-0.7-1.5-1.5v-5.5
			C171.7,67.9,172.4,67.2,173.2,67.2z"/>
		<path class="st15" d="M159.4,67.2h7.4c0.8,0,1.5,0.7,1.5,1.5v5.5c0,0.8-0.7,1.5-1.5,1.5h-7.4c-0.8,0-1.5-0.7-1.5-1.5v-5.5
			C157.9,67.9,158.6,67.2,159.4,67.2z"/>
		<path class="st15" d="M320.2,77.7h6.6c1,0,1.8,0.8,1.8,1.8v7.5c0,1-0.8,1.8-1.8,1.8h-6.6c-1,0-1.8-0.8-1.8-1.8v-7.5
			C318.4,78.5,319.2,77.7,320.2,77.7z"/>
		<path class="st15" d="M306.9,77.7h6.6c1,0,1.8,0.8,1.8,1.8v7.5c0,1-0.8,1.8-1.8,1.8h-6.6c-1,0-1.8-0.8-1.8-1.8v-7.5
			C305.1,78.5,305.9,77.7,306.9,77.7z"/>
		<path class="st15" d="M293.6,77.7h6.6c1,0,1.8,0.8,1.8,1.8v7.5c0,1-0.8,1.8-1.8,1.8h-6.6c-1,0-1.8-0.8-1.8-1.8v-7.5
			C291.7,78.5,292.6,77.7,293.6,77.7z"/>
		<path class="st15" d="M280.2,77.7h6.6c1,0,1.8,0.8,1.8,1.8v7.5c0,1-0.8,1.8-1.8,1.8h-6.6c-1,0-1.8-0.8-1.8-1.8v-7.5
			C278.4,78.5,279.2,77.7,280.2,77.7z"/>
		<path class="st15" d="M266.9,77.7h6.6c1,0,1.8,0.8,1.8,1.8v7.5c0,1-0.8,1.8-1.8,1.8h-6.6c-1,0-1.8-0.8-1.8-1.8v-7.5
			C265.1,78.5,265.9,77.7,266.9,77.7z"/>
		<path class="st15" d="M253.6,77.7h6.6c1,0,1.8,0.8,1.8,1.8v7.5c0,1-0.8,1.8-1.8,1.8h-6.6c-1,0-1.8-0.8-1.8-1.8v-7.5
			C251.7,78.5,252.5,77.7,253.6,77.7z"/>
		<path class="st15" d="M240.2,77.7h6.6c1,0,1.8,0.8,1.8,1.8v7.5c0,1-0.8,1.8-1.8,1.8h-6.6c-1,0-1.8-0.8-1.8-1.8v-7.5
			C238.4,78.5,239.2,77.7,240.2,77.7z"/>
		<path class="st15" d="M226.9,77.7h6.6c1,0,1.8,0.8,1.8,1.8v7.5c0,1-0.8,1.8-1.8,1.8h-6.6c-1,0-1.8-0.8-1.8-1.8v-7.5
			C225,78.5,225.9,77.7,226.9,77.7z"/>
		<path class="st15" d="M213.5,77.7h6.6c1,0,1.8,0.8,1.8,1.8v7.5c0,1-0.8,1.8-1.8,1.8h-6.6c-1,0-1.8-0.8-1.8-1.8v-7.5
			C211.7,78.5,212.5,77.7,213.5,77.7z"/>
		<path class="st15" d="M200.2,77.7h6.6c1,0,1.8,0.8,1.8,1.8v7.5c0,1-0.8,1.8-1.8,1.8h-6.6c-1,0-1.8-0.8-1.8-1.8v-7.5
			C198.4,78.5,199.2,77.7,200.2,77.7z"/>
		<path class="st15" d="M186.9,77.7h6.6c1,0,1.8,0.8,1.8,1.8v7.5c0,1-0.8,1.8-1.8,1.8h-6.6c-1,0-1.8-0.8-1.8-1.8v-7.5
			C185,78.5,185.9,77.7,186.9,77.7z"/>
		<path class="st15" d="M173.5,77.7h6.6c1,0,1.8,0.8,1.8,1.8v7.5c0,1-0.8,1.8-1.8,1.8h-6.6c-1,0-1.8-0.8-1.8-1.8v-7.5
			C171.7,78.5,172.5,77.7,173.5,77.7z"/>
		<path class="st15" d="M159.7,77.7h6.7c1,0,1.9,0.8,1.9,1.9V87c0,1-0.8,1.9-1.9,1.9h-6.7c-1,0-1.9-0.8-1.9-1.9v-7.5
			C157.9,78.5,158.7,77.7,159.7,77.7z"/>
		<path class="st15" d="M159.9,90.8h13.9c1.1,0,2,0.9,2,2v7.2c0,1.1-0.9,2-2,2h-13.9c-1.1,0-2-0.9-2-2v-7.2
			C157.9,91.7,158.8,90.8,159.9,90.8z"/>
		<path class="st15" d="M159.9,104h16.5c1.1,0,2,0.9,2,2v7.2c0,1.1-0.9,2-2,2h-16.5c-1.1,0-2-0.9-2-2V106
			C157.9,104.9,158.8,104,159.9,104z"/>
		<path class="st15" d="M159.9,117.1h23.6c1.1,0,2,0.9,2,2v7.2c0,1.1-0.9,2-2,2h-23.6c-1.1,0-2-0.9-2-2v-7.2
			C157.9,118,158.8,117.1,159.9,117.1z"/>
		<path class="st15" d="M159.9,130.3h9.8c1.1,0,2,0.9,2,2v7.2c0,1.1-0.9,2-2,2h-9.8c-1.1,0-2-0.9-2-2v-7.2
			C157.9,131.2,158.8,130.3,159.9,130.3z"/>
		<path class="st15" d="M179.4,90.8h7.1c1.1,0,2,0.9,2,2v7.3c0,1.1-0.9,2-2,2h-7.1c-1.1,0-2-0.9-2-2v-7.3
			C177.4,91.7,178.3,90.8,179.4,90.8z"/>
		<path class="st15" d="M193,90.8h7.1c1.1,0,2,0.9,2,2v7.3c0,1.1-0.9,2-2,2H193c-1.1,0-2-0.9-2-2v-7.3C191,91.7,191.9,90.8,193,90.8
			z"/>
		<path class="st15" d="M206.5,90.8h7.1c1.1,0,2,0.9,2,2v7.3c0,1.1-0.9,2-2,2h-7.1c-1.1,0-2-0.9-2-2v-7.3
			C204.6,91.7,205.5,90.8,206.5,90.8z"/>
		<path class="st15" d="M220.1,90.8h7.1c1.1,0,2,0.9,2,2v7.3c0,1.1-0.9,2-2,2h-7.1c-1.1,0-2-0.9-2-2v-7.3
			C218.2,91.7,219.1,90.8,220.1,90.8z"/>
		<path class="st15" d="M233.7,90.8h7.1c1.1,0,2,0.9,2,2v7.3c0,1.1-0.9,2-2,2h-7.1c-1.1,0-2-0.9-2-2v-7.3
			C231.8,91.7,232.6,90.8,233.7,90.8z"/>
		<path class="st15" d="M247.3,90.8h7.1c1.1,0,2,0.9,2,2v7.3c0,1.1-0.9,2-2,2h-7.1c-1.1,0-2-0.9-2-2v-7.3
			C245.3,91.7,246.2,90.8,247.3,90.8z"/>
		<path class="st15" d="M260.9,90.8h7.1c1.1,0,2,0.9,2,2v7.3c0,1.1-0.9,2-2,2h-7.1c-1.1,0-2-0.9-2-2v-7.3
			C258.9,91.7,259.8,90.8,260.9,90.8z"/>
		<path class="st15" d="M274.5,90.8h7.1c1.1,0,2,0.9,2,2v7.3c0,1.1-0.9,2-2,2h-7.1c-1.1,0-2-0.9-2-2v-7.3
			C272.5,91.7,273.4,90.8,274.5,90.8z"/>
		<path class="st15" d="M288.1,90.8h7.1c1.1,0,2,0.9,2,2v7.3c0,1.1-0.9,2-2,2h-7.1c-1.1,0-2-0.9-2-2v-7.3
			C286.1,91.7,287,90.8,288.1,90.8z"/>
		<path class="st15" d="M301.7,90.8h7.1c1.1,0,2,0.9,2,2v7.3c0,1.1-0.9,2-2,2h-7.1c-1.1,0-2-0.9-2-2v-7.3
			C299.7,91.7,300.6,90.8,301.7,90.8z"/>
		<path class="st15" d="M315.3,90.8h7.1c1.1,0,2,0.9,2,2v7.3c0,1.1-0.9,2-2,2h-7.1c-1.1,0-2-0.9-2-2v-7.3
			C313.3,91.7,314.2,90.8,315.3,90.8z"/>
		<path class="st15" d="M328.8,90.8h7.1c1.1,0,2,0.9,2,2v7.3c0,1.1-0.9,2-2,2h-7.1c-1.1,0-2-0.9-2-2v-7.3
			C326.9,91.7,327.8,90.8,328.8,90.8z"/>
		<path class="st15" d="M183.1,104h7.1c1.1,0,2,0.9,2,2v7.3c0,1.1-0.9,2-2,2h-7.1c-1.1,0-2-0.9-2-2V106
			C181.2,104.9,182.1,104,183.1,104z"/>
		<path class="st15" d="M196.7,104h7.1c1.1,0,2,0.9,2,2v7.3c0,1.1-0.9,2-2,2h-7.1c-1.1,0-2-0.9-2-2V106
			C194.8,104.9,195.7,104,196.7,104z"/>
		<path class="st15" d="M210.3,104h7.1c1.1,0,2,0.9,2,2v7.3c0,1.1-0.9,2-2,2h-7.1c-1.1,0-2-0.9-2-2V106
			C208.4,104.9,209.2,104,210.3,104z"/>
		<path class="st15" d="M223.9,104h7.1c1.1,0,2,0.9,2,2v7.3c0,1.1-0.9,2-2,2h-7.1c-1.1,0-2-0.9-2-2V106
			C221.9,104.9,222.8,104,223.9,104z"/>
		<path class="st15" d="M237.5,104h7.1c1.1,0,2,0.9,2,2v7.3c0,1.1-0.9,2-2,2h-7.1c-1.1,0-2-0.9-2-2V106
			C235.5,104.9,236.4,104,237.5,104z"/>
		<path class="st15" d="M251.1,104h7.1c1.1,0,2,0.9,2,2v7.3c0,1.1-0.9,2-2,2h-7.1c-1.1,0-2-0.9-2-2V106
			C249.1,104.9,250,104,251.1,104z"/>
		<path class="st15" d="M264.7,104h7.1c1.1,0,2,0.9,2,2v7.3c0,1.1-0.9,2-2,2h-7.1c-1.1,0-2-0.9-2-2V106
			C262.7,104.9,263.6,104,264.7,104z"/>
		<path class="st15" d="M278.3,104h7.1c1.1,0,2,0.9,2,2v7.3c0,1.1-0.9,2-2,2h-7.1c-1.1,0-2-0.9-2-2V106
			C276.3,104.9,277.2,104,278.3,104z"/>
		<path class="st15" d="M291.9,104h7.1c1.1,0,2,0.9,2,2v7.3c0,1.1-0.9,2-2,2h-7.1c-1.1,0-2-0.9-2-2V106
			C289.9,104.9,290.8,104,291.9,104z"/>
		<path class="st15" d="M305.4,104h7.1c1.1,0,2,0.9,2,2v7.3c0,1.1-0.9,2-2,2h-7.1c-1.1,0-2-0.9-2-2V106
			C303.5,104.9,304.4,104,305.4,104z"/>
		<path class="st15" d="M319,104h7.1c1.1,0,2,0.9,2,2v7.3c0,1.1-0.9,2-2,2H319c-1.1,0-2-0.9-2-2V106C317.1,104.9,317.9,104,319,104z
			"/>
		<path class="st15" d="M190.3,117.1h7.1c1.1,0,2,0.9,2,2v7.3c0,1.1-0.9,2-2,2h-7.1c-1.1,0-2-0.9-2-2v-7.3
			C188.3,118,189.2,117.1,190.3,117.1z"/>
		<path class="st15" d="M203.8,117.1h7.1c1.1,0,2,0.9,2,2v7.3c0,1.1-0.9,2-2,2h-7.1c-1.1,0-2-0.9-2-2v-7.3
			C201.9,118,202.8,117.1,203.8,117.1z"/>
		<path class="st15" d="M217.4,117.1h7.1c1.1,0,2,0.9,2,2v7.3c0,1.1-0.9,2-2,2h-7.1c-1.1,0-2-0.9-2-2v-7.3
			C215.5,118,216.4,117.1,217.4,117.1z"/>
		<path class="st15" d="M231,117.1h7.1c1.1,0,2,0.9,2,2v7.3c0,1.1-0.9,2-2,2H231c-1.1,0-2-0.9-2-2v-7.3
			C229.1,118,229.9,117.1,231,117.1z"/>
		<path class="st15" d="M244.6,117.1h7.1c1.1,0,2,0.9,2,2v7.3c0,1.1-0.9,2-2,2h-7.1c-1.1,0-2-0.9-2-2v-7.3
			C242.6,118,243.5,117.1,244.6,117.1z"/>
		<path class="st15" d="M258.2,117.1h7.1c1.1,0,2,0.9,2,2v7.3c0,1.1-0.9,2-2,2h-7.1c-1.1,0-2-0.9-2-2v-7.3
			C256.2,118,257.1,117.1,258.2,117.1z"/>
		<path class="st15" d="M271.8,117.1h7.1c1.1,0,2,0.9,2,2v7.3c0,1.1-0.9,2-2,2h-7.1c-1.1,0-2-0.9-2-2v-7.3
			C269.8,118,270.7,117.1,271.8,117.1z"/>
		<path class="st15" d="M285.4,117.1h7.1c1.1,0,2,0.9,2,2v7.3c0,1.1-0.9,2-2,2h-7.1c-1.1,0-2-0.9-2-2v-7.3
			C283.4,118,284.3,117.1,285.4,117.1z"/>
		<path class="st15" d="M299,117.1h7.1c1.1,0,2,0.9,2,2v7.3c0,1.1-0.9,2-2,2H299c-1.1,0-2-0.9-2-2v-7.3
			C297,118,297.9,117.1,299,117.1z"/>
		<path class="st15" d="M312.6,117.1h7.1c1.1,0,2,0.9,2,2v7.3c0,1.1-0.9,2-2,2h-7.1c-1.1,0-2-0.9-2-2v-7.3
			C310.6,118,311.5,117.1,312.6,117.1z"/>
		<path class="st15" d="M326.2,117.1H339c1.1,0,2,0.9,2,2v7.2c0,1.1-0.9,2-2,2h-12.8c-1.1,0-2-0.9-2-2v-7.2
			C324.2,118,325.1,117.1,326.2,117.1z"/>
		<path class="st15" d="M176.5,130.3h7.1c1.1,0,2,0.9,2,2v7.3c0,1.1-0.9,2-2,2h-7.1c-1.1,0-2-0.9-2-2v-7.3
			C174.5,131.2,175.4,130.3,176.5,130.3z"/>
		<path class="st15" d="M190,130.3h7.1c1.1,0,2,0.9,2,2v7.3c0,1.1-0.9,2-2,2H190c-1.1,0-2-0.9-2-2v-7.3
			C188.1,131.2,189,130.3,190,130.3z"/>
		<path class="st15" d="M203.6,130.3h7.1c1.1,0,2,0.9,2,2v7.3c0,1.1-0.9,2-2,2h-7.1c-1.1,0-2-0.9-2-2v-7.3
			C201.7,131.2,202.5,130.3,203.6,130.3z"/>
		<path class="st15" d="M217.2,130.3h7.1c1.1,0,2,0.9,2,2v7.3c0,1.1-0.9,2-2,2h-7.1c-1.1,0-2-0.9-2-2v-7.3
			C215.2,131.2,216.1,130.3,217.2,130.3z"/>
		<path class="st15" d="M230.8,130.3h7.1c1.1,0,2,0.9,2,2v7.3c0,1.1-0.9,2-2,2h-7.1c-1.1,0-2-0.9-2-2v-7.3
			C228.8,131.2,229.7,130.3,230.8,130.3z"/>
		<path class="st15" d="M244.4,130.3h7.1c1.1,0,2,0.9,2,2v7.3c0,1.1-0.9,2-2,2h-7.1c-1.1,0-2-0.9-2-2v-7.3
			C242.4,131.2,243.3,130.3,244.4,130.3z"/>
		<path class="st15" d="M258,130.3h7.1c1.1,0,2,0.9,2,2v7.3c0,1.1-0.9,2-2,2H258c-1.1,0-2-0.9-2-2v-7.3
			C256,131.2,256.9,130.3,258,130.3z"/>
		<path class="st15" d="M271.6,130.3h7.1c1.1,0,2,0.9,2,2v7.3c0,1.1-0.9,2-2,2h-7.1c-1.1,0-2-0.9-2-2v-7.3
			C269.6,131.2,270.5,130.3,271.6,130.3z"/>
		<path class="st15" d="M285.2,130.3h7.1c1.1,0,2,0.9,2,2v7.3c0,1.1-0.9,2-2,2h-7.1c-1.1,0-2-0.9-2-2v-7.3
			C283.2,131.2,284.1,130.3,285.2,130.3z"/>
		<path class="st15" d="M298.7,130.3h7.1c1.1,0,2,0.9,2,2v7.3c0,1.1-0.9,2-2,2h-7.1c-1.1,0-2-0.9-2-2v-7.3
			C296.8,131.2,297.7,130.3,298.7,130.3z"/>
		<path class="st15" d="M312.4,130.3h12.8c1.1,0,2,0.9,2,2v7.2c0,1.1-0.9,2-2,2h-12.8c-1.1,0-2-0.9-2-2v-7.2
			C310.4,131.2,311.3,130.3,312.4,130.3z"/>
		<path class="st15" d="M332.4,130.3h6.7c1,0,1.9,0.8,1.9,1.9v7.5c0,1-0.8,1.9-1.9,1.9h-6.7c-1,0-1.9-0.8-1.9-1.9v-7.5
			C330.5,131.1,331.3,130.3,332.4,130.3z"/>
		<path class="st15" d="M226.2,150.9h70.6c1.1,0,2,0.9,2,2v34c0,1.1-0.9,2-2,2h-70.6c-1.1,0-2-0.9-2-2v-34
			C224.2,151.8,225.1,150.9,226.2,150.9z"/>
		<path class="st15" d="M224.6,191.3h35.1c0.2,0,0.4,0.2,0.4,0.4v7.1c0,0.2-0.2,0.4-0.4,0.4h-35.1c-0.2,0-0.4-0.2-0.4-0.4v-7.1
			C224.2,191.5,224.4,191.3,224.6,191.3z"/>
		<path class="st15" d="M263.2,191.3h35.1c0.2,0,0.4,0.2,0.4,0.4v7.1c0,0.2-0.2,0.4-0.4,0.4h-35.1c-0.2,0-0.4-0.2-0.4-0.4v-7.1
			C262.8,191.5,263,191.3,263.2,191.3z"/>
		<polygon class="st13" points="132.5,10.9 373.2,38.4 389.9,10.9 		"/>
	</g>
	<g>
		
			<rect x="165.6" y="204" transform="matrix(2.166355e-03 -1 1 2.166355e-03 -31.9302 410.9997)" class="st17" width="48.8" height="35"/>
		<path class="st17" d="M210.1,163.1c-0.1,4.2-0.1,9.2-0.1,15.1l11.8-18.1c5-7.7,12.2-4,15-0.5L213.4,202
			c-3.2,5.9-12.9,8.8-22.2,9.1c-19.3,0.5-31-12.1-31.3-38.5l-4.2-20.3c-1.7-8.6,10.4-10.9,12.1-2.2l1.6,8.5c0.3-0.4,0.9-0.9,1.4-1.3
			l-1.4-17.1c-0.8-8.8,11.4-8.9,12.2-1.5l1.5,14.1c0.4-0.1,1.1-0.1,1.4-0.1l-0.4-18.1c-0.2-8.1,12.1-8.3,12.3-0.2l0.4,20.9
			c0.6,0.3,1.1,0.6,1.6,0.9l3.5-41.8c0.7-8,12.9-7.2,12.2,1.1L210.1,163.1z"/>
		
			<rect x="183.3" y="203.3" transform="matrix(2.173984e-03 -1 1 2.173984e-03 -35.1837 414.2289)" class="st18" width="13.3" height="42.9"/>
		<polygon class="st19" points="215.8,274.1 215.7,231.4 164.2,231.3 164.3,274.1 		"/>
		
			<rect x="299.5" y="204.3" transform="matrix(2.145505e-03 -1 1 2.145505e-03 101.4329 545.2307)" class="st17" width="48.8" height="35"/>
		<path class="st17" d="M304.1,163.3c0.1,4.2,0,9.2,0.1,15.1l-11.4-17.2c-5-7.6-12.9-4.6-15.3-0.9l23,41.8
			c3.2,5.9,12.9,8.9,22.2,9.2c19.3,0.6,31.1-11.9,31.5-38.4l8.2-40.1c1.8-8.6-10.4-11-12.1-2.3l-5.5,28.3c-0.3-0.4-0.9-0.9-1.4-1.3
			l3.8-38.1c0.9-8.8-11.4-8.9-12.2-1.5l-3.8,35.1c-0.4-0.1-1.1-0.1-1.4-0.1l0.9-40.5c0.2-8.1-12.1-8.3-12.3-0.3l-1,43.4
			c-0.6,0.3-1.1,0.6-1.6,0.9l-3.3-41.9c-0.6-8-12.9-7.3-12.2,1L304.1,163.3z"/>
		
			<rect x="317.3" y="203.6" transform="matrix(2.173984e-03 -1 1 2.173984e-03 98.1718 548.4551)" class="st18" width="13.3" height="42.9"/>
		<polygon class="st19" points="298.1,274.1 298.1,231.6 349.6,231.7 349.6,274.1 		"/>
		<polygon class="st20" points="215.8,274.1 215.7,231.4 190,231.4 190,274.1 		"/>
		<polygon class="st20" points="349.6,274.1 349.6,231.7 323.9,231.7 323.9,274.1 		"/>
	</g>
	<g>
		
			<ellipse transform="matrix(0.9773 -0.2117 0.2117 0.9773 3.7133 102.1549)" class="st12" cx="478.9" cy="33.7" rx="31.7" ry="31.7"/>
		
			<ellipse transform="matrix(0.9773 -0.2117 0.2117 0.9773 3.7138 102.1584)" class="st11" cx="478.9" cy="33.7" rx="29.7" ry="29.7"/>
		<path class="st12" d="M515.6,23.8l0.4,2.1c0.3,1.3-0.6,2.7-1.9,2.9l-15.2,3.3c-1.3,0.3-2.7-0.6-2.9-1.9l-0.4-2.1
			c-0.3-1.3,0.6-2.7,1.9-2.9l15.2-3.3C513.9,21.6,515.3,22.5,515.6,23.8z"/>
		<path class="st11" d="M514.4,24.5l0.3,1.3c0.2,0.8-0.4,1.7-1.2,1.9l-14.3,3.1c-0.8,0.2-1.7-0.4-1.9-1.2l-0.3-1.3
			c-0.2-0.8,0.4-1.7,1.2-1.9l14.3-3.1C513.4,23.1,514.2,23.6,514.4,24.5z"/>
		<ellipse transform="matrix(0.9773 -0.2117 0.2117 0.9773 3.7134 102.1555)" class="st12" cx="478.9" cy="33.7" rx="25" ry="25"/>
		
			<ellipse transform="matrix(0.9773 -0.2117 0.2117 0.9773 3.7147 102.1643)" class="st14" cx="478.9" cy="33.7" rx="22.5" ry="22.5"/>
		
			<ellipse transform="matrix(0.9773 -0.2117 0.2117 0.9773 3.7138 102.1581)" class="st21" cx="478.9" cy="33.7" rx="19.1" ry="19.1"/>
		
			<ellipse transform="matrix(0.9773 -0.2117 0.2117 0.9773 3.7135 102.1569)" class="st22" cx="478.9" cy="33.7" rx="13.8" ry="13.8"/>
		<path class="st23" d="M492.1,44.5c-2.3,2.8-5.6,5-9.5,5.8c-9.2,2-18.2-3.8-20.2-13c-0.8-3.9-0.3-7.7,1.3-11.1
			c-1.1,3-1.5,6.4-0.7,9.8c2,9.3,11.2,15.2,20.5,13.2C486.9,48.5,489.8,46.8,492.1,44.5z"/>
	</g>
	<g>
		<path class="st12" d="M8.1,147.9l23.5,0c4.5,0,8.1,3.6,8.1,8.1l0,63.1c0,4.5-3.6,8.1-8.1,8.1l-23.5,0c-4.5,0-8.1-3.6-8.1-8.1
			L0,156C0.1,151.5,3.7,147.9,8.1,147.9z"/>
		<rect x="2.9" y="156.2" class="st16" width="33.9" height="60"/>
		<path class="st14" d="M12.3,152.3l15.2,0c0.4,0,0.8-0.3,0.8-0.8v0c0-0.4-0.3-0.8-0.8-0.8l-15.2,0c-0.4,0-0.8,0.3-0.8,0.8l0,0
			C11.5,152,11.9,152.3,12.3,152.3z"/>
		<polygon class="st13" points="3,156.2 36.8,216.2 36.8,156.2 		"/>
		<path class="st14" d="M7,223l25.7,0c0.6,0,1.2-0.5,1.2-1.2l0,0c0-0.6-0.5-1.2-1.2-1.2l-25.7,0c-0.6,0-1.2,0.5-1.2,1.2l0,0
			C5.8,222.5,6.4,223,7,223z"/>
		<circle class="st12" cx="19.8" cy="221.8" r="4.6"/>
		<circle class="st14" cx="19.8" cy="221.8" r="3.2"/>
	</g>
	<g>
		<rect x="57.7" y="45" class="st12" width="20.5" height="10"/>
		<g>
			<path class="st19" d="M68.4,60.2h-28c-4.4,0-8-3.6-8-8.1v-3c0-4.4,3.6-8,8-8h28V60.2z"/>
			<path class="st24" d="M68.4,57.1H42.2c-3,0-5.4-2.4-5.4-5.4v-2c0-3,2.4-5.4,5.4-5.4h26.1V57.1z"/>
		</g>
		<g>
			<path class="st19" d="M94.9,60.2h-8.4V41.1h8.4c4.4,0,8.1,3.6,8.1,8v3C102.9,56.6,99.3,60.2,94.9,60.2z"/>
			<path class="st24" d="M93,57.1h-6.6V44.2H93c3,0,5.4,2.4,5.4,5.4v2C98.4,54.6,96,57.1,93,57.1z"/>
		</g>
		<g>
			<circle class="st25" cx="75.9" cy="52.1" r="1"/>
			<circle class="st25" cx="75.9" cy="47.7" r="1"/>
		</g>
	</g>
	<g>
		<path class="st26" d="M63.5,208.7c0,0.5-0.4,0.9-0.9,0.9c-0.5,0-0.9-0.4-0.9-0.9V205c0-0.5,0.4-0.9,0.9-0.9c0.5,0,0.9,0.4,0.9,0.9
			V208.7z"/>
		<path class="st27" d="M66.8,200.6c0,3.3-1.9,6-4.2,6c-2.3,0-4.2-2.7-4.2-6l0-106.4c0-3.3,1.9-6,4.2-6c2.3,0,4.2,2.7,4.2,6V200.6z"
			/>
		<path class="st28" d="M67.9,194.5c0,2.9-2.4,5.3-5.3,5.3c-2.9,0-5.3-2.4-5.3-5.3l0-95.6c0-2.9,2.4-5.3,5.3-5.3
			c2.9,0,5.3,2.4,5.3,5.3L67.9,194.5z"/>
		<path class="st27" d="M67.9,100.2l3.1,6.5v28.7c0,0-0.8,1.6-2,2.6v-23.8c0,0-5.3-4.1-12-0.8V100C56.9,100,62.6,96.7,67.9,100.2z"
			/>
	</g>
	<g>
		<path class="st29" d="M102.1,115.9v9.9c0,0.4-0.3,0.4-0.7,0.1l-2.8-2.2c-0.4-0.3-0.7-0.9-0.7-1.2v-9.9c0-0.4,0.3-0.4,0.7-0.1
			l2.8,2.2C101.8,115,102.1,115.5,102.1,115.9z"/>
		<path class="st12" d="M102.9,118.2V132c0,0.5-0.4,1-1,1H98c-0.5,0-1-0.4-1-1l0-13.7c0-0.5,0.4-1,1-1h3.9
			C102.4,117.3,102.9,117.7,102.9,118.2z"/>
		<path class="st12" d="M106.9,126.1v45.9c0,1.3-1,2.3-2.3,2.3l-9.3,0c-1.3,0-2.3-1-2.3-2.3l0-45.9c0-2.6,3-4.4,3.9-4.4h6.2
			C103.9,121.7,106.9,123.4,106.9,126.1z"/>
		<path class="st30" d="M108.8,127.7v42.6c0,0.9-0.7,1.6-1.6,1.6H92.8c-0.9,0-1.6-0.7-1.6-1.6l0-42.6c0-0.9,0.7-1.6,1.6-1.6h14.3
			C108,126.1,108.8,126.8,108.8,127.7z"/>
		<rect x="91.2" y="128.4" class="st31" width="17.6" height="41.1"/>
		<path class="st30" d="M108.8,91.2v15.8c0,0.9-0.7,1.6-1.6,1.6H92.8c-0.9,0-1.6-0.7-1.6-1.6V91.2c0-0.9,0.7-1.6,1.6-1.6l14.3,0
			C108,89.6,108.8,90.3,108.8,91.2z"/>
		<path class="st31" d="M107,104.7V89.5c0-0.7-0.6-1.3-1.3-1.3H94.2c-0.7,0-1.3,0.6-1.3,1.3v15.2c0,0.7,0.6,1.3,1.3,1.3h11.5
			C106.4,106,107,105.4,107,104.7z"/>
	</g>
	<g>
		<rect x="0.3" y="92.3" class="st19" width="39.1" height="39.1"/>
		<polygon class="st20" points="39.4,118.4 39.4,131.4 31,131.4 		"/>
		<path class="st32" d="M39.4,118.4c-3.6,1.8-7.3,2.6-10.8,1.7c2.3,3.3,2.9,7.2,2.5,11.3L39.4,118.4z"/>
		<rect x="0.3" y="92.3" class="st24" width="39.1" height="4.7"/>
	</g>
</g>
</svg>
