<?xml version="1.0" encoding="utf-8"?>
<!-- Generator: Adobe Illustrator 20.1.0, SVG Export Plug-In . SVG Version: 6.00 Build 0)  -->
<svg version="1.1" id="Capa_1" xmlns="http://www.w3.org/2000/svg" xmlns:xlink="http://www.w3.org/1999/xlink" x="0px" y="0px"
	 viewBox="0 0 30.2 30.2" style="enable-background:new 0 0 30.2 30.2;" xml:space="preserve">
<style type="text/css">
	.st0{fill:#F2F2F2;}
	.st1{fill:#FFFFFF;stroke:#BFBFBF;stroke-width:0.25;stroke-miterlimit:10;}
	.st2{fill:#FFFFFF;stroke:#BFBFBF;stroke-width:0.1857;stroke-miterlimit:10;}
	.st3{fill:#444444;}
	.st4{fill:#FFFFFF;}
	.st5{opacity:0.5;}
	.st6{opacity:0.25;}
	.st7{opacity:0.25;fill:none;stroke:#010400;stroke-width:0.5;stroke-miterlimit:10;}
	.st8{opacity:0.5;fill:none;stroke:#FFFFFF;stroke-miterlimit:10;}
	.st9{fill:#5FCDAA;}
	.st10{fill:#EFF0F2;}
	.st11{fill-rule:evenodd;clip-rule:evenodd;fill:#E6E6E6;}
	.st12{fill-rule:evenodd;clip-rule:evenodd;fill:#FFFFFF;}
	.st13{fill-rule:evenodd;clip-rule:evenodd;fill:#4D4D4D;}
	.st14{fill-rule:evenodd;clip-rule:evenodd;fill:#B3B3B3;}
	.st15{fill-rule:evenodd;clip-rule:evenodd;fill:#CCCCCC;}
	.st16{fill-rule:evenodd;clip-rule:evenodd;}
	.st17{fill-rule:evenodd;clip-rule:evenodd;fill:#F2CAA9;}
	.st18{fill-rule:evenodd;clip-rule:evenodd;fill:#3F73A1;}
	.st19{fill-rule:evenodd;clip-rule:evenodd;fill:#FFCD61;}
	.st20{fill-rule:evenodd;clip-rule:evenodd;fill:#FFAE00;}
	.st21{fill-rule:evenodd;clip-rule:evenodd;fill:#886734;}
	.st22{fill-rule:evenodd;clip-rule:evenodd;fill:#694F28;}
	.st23{fill-rule:evenodd;clip-rule:evenodd;fill:#BD9D6E;}
	.st24{fill-rule:evenodd;clip-rule:evenodd;fill:#F9A818;}
	.st25{fill-rule:evenodd;clip-rule:evenodd;fill:#5896CC;}
	.st26{fill:#4C8EB4;}
	.st27{fill:#2C577D;}
	.st28{fill:#F9A818;}
	.st29{fill-rule:evenodd;clip-rule:evenodd;fill:#2C577D;}
	.st30{fill-rule:evenodd;clip-rule:evenodd;fill:#F2837B;}
	.st31{fill-rule:evenodd;clip-rule:evenodd;fill:#EE4E42;}
	.st32{fill-rule:evenodd;clip-rule:evenodd;fill:#FFEABD;}
	.st33{fill:#444242;}
	.st34{font-family:'Roboto-Regular';}
	.st35{font-size:16.6775px;}
	.st36{opacity:0.25;fill:#444444;}
	.st37{fill:#FFFFFF;stroke:#BFBFBF;stroke-width:0.2217;stroke-miterlimit:10;}
	.st38{fill:#ED1941;}
	.st39{fill:none;stroke:#9A999E;stroke-width:0.2291;stroke-miterlimit:10;}
	.st40{fill:#F1F2F2;}
	.st41{fill:#211915;}
	.st42{fill:#FF6EDC;}
	.st43{fill:#CD2849;stroke:#444444;stroke-width:0.2291;stroke-miterlimit:10;}
	.st44{clip-path:url(#SVGID_4_);}
	.st45{clip-path:url(#SVGID_8_);}
	.st46{clip-path:url(#SVGID_12_);}
	.st47{clip-path:url(#SVGID_16_);}
	.st48{clip-path:url(#SVGID_20_);}
	.st49{clip-path:url(#SVGID_24_);}
	.st50{clip-path:url(#SVGID_28_);}
	.st51{clip-path:url(#SVGID_32_);}
	.st52{clip-path:url(#SVGID_36_);}
	.st53{clip-path:url(#SVGID_40_);}
	.st54{clip-path:url(#SVGID_44_);}
	.st55{clip-path:url(#SVGID_48_);}
	.st56{fill:none;stroke:#000000;stroke-width:0.25;stroke-miterlimit:10;}
</style>
<g>
	<g>
		<path class="st3" d="M21.5,19.5c0-5.9-4.8-10.7-10.7-10.7S0,13.6,0,19.5c0,3.1,1.3,5.9,3.5,7.9l0,0l0.3,0.3c0,0,0,0,0.1,0.1
			c0.2,0.2,0.4,0.3,0.6,0.4c0.1,0,0.1,0.1,0.2,0.1c0.2,0.1,0.4,0.3,0.6,0.4c0,0,0.1,0.1,0.1,0.1c0.2,0.1,0.5,0.3,0.7,0.4
			c0,0,0,0,0.1,0c0.8,0.4,1.7,0.7,2.6,0.8c0,0,0,0,0.1,0c0.3,0,0.6,0.1,0.9,0.1c0,0,0.1,0,0.1,0c0.3,0,0.6,0,0.9,0
			c0.3,0,0.6,0,0.9,0c0,0,0.1,0,0.1,0c0.3,0,0.6-0.1,0.9-0.1c0,0,0,0,0.1,0c0.9-0.2,1.8-0.4,2.6-0.8c0,0,0.1,0,0.1,0
			c0.2-0.1,0.5-0.2,0.7-0.4c0.1,0,0.1-0.1,0.2-0.1c0.2-0.1,0.4-0.3,0.6-0.4c0.1,0,0.1-0.1,0.2-0.2c0.2-0.1,0.3-0.2,0.5-0.4
			c0,0,0.1-0.1,0.1-0.1l0.4-0.3l0,0C20.1,25.5,21.5,22.6,21.5,19.5L21.5,19.5z M0.8,19.5c0-5.5,4.5-10,10-10s10,4.5,10,10
			c0,3-1.3,5.6-3.4,7.4c-0.1-0.1-0.2-0.2-0.3-0.2l-3.3-1.7c-0.3-0.1-0.5-0.4-0.5-0.8v-1.2c0.1-0.1,0.2-0.2,0.2-0.3
			c0.4-0.6,0.8-1.3,1-2c0.5-0.2,0.8-0.7,0.8-1.3v-1.4c0-0.3-0.1-0.7-0.3-0.9v-1.8c0-0.2,0.1-1.3-0.7-2.3c-0.7-0.8-1.9-1.2-3.5-1.2
			c-1.6,0-2.7,0.4-3.5,1.2c-0.8,0.9-0.8,2.1-0.7,2.3v1.8c-0.2,0.3-0.3,0.6-0.3,0.9v1.4c0,0.4,0.2,0.8,0.5,1.1c0.3,1.2,1,2.2,1.2,2.5
			v1.1c0,0.3-0.2,0.6-0.5,0.8l-3.1,1.7c-0.1,0.1-0.2,0.1-0.3,0.2C2.1,25.1,0.8,22.4,0.8,19.5L0.8,19.5z M16.6,27.6
			c-0.1,0.1-0.3,0.2-0.4,0.3c-0.1,0-0.1,0.1-0.2,0.1c-0.2,0.1-0.4,0.2-0.6,0.3c0,0-0.1,0-0.1,0.1c-0.4,0.2-0.9,0.4-1.4,0.6
			c0,0,0,0,0,0c-0.2,0.1-0.5,0.2-0.7,0.2h0c-0.3,0.1-0.5,0.1-0.8,0.2c0,0,0,0,0,0c-0.2,0-0.5,0.1-0.7,0.1c0,0-0.1,0-0.1,0
			c-0.2,0-0.5,0-0.7,0c-0.2,0-0.5,0-0.7,0c0,0-0.1,0-0.1,0c-0.2,0-0.5-0.1-0.7-0.1l0,0c-0.5-0.1-1-0.2-1.5-0.4c0,0,0,0,0,0
			c-0.2-0.1-0.5-0.2-0.7-0.3c0,0,0,0,0,0c-0.2-0.1-0.4-0.2-0.7-0.3c0,0-0.1,0-0.1,0c-0.2-0.1-0.4-0.2-0.6-0.3
			c-0.1,0-0.1-0.1-0.2-0.1c-0.2-0.1-0.4-0.2-0.5-0.4c0,0,0,0-0.1,0l0,0l3.1-1.7c0.5-0.3,0.9-0.8,0.9-1.5v-1.4l-0.1-0.1
			c0,0-0.9-1-1.2-2.4l0-0.2l-0.1-0.1C7.1,20,7,19.8,7,19.5v-1.4c0-0.2,0.1-0.4,0.2-0.5l0.1-0.1v-2.2l0-0.1c0,0-0.1-1,0.5-1.7
			c0.6-0.6,1.5-1,2.9-1c1.3,0,2.3,0.3,2.9,1c0.7,0.7,0.6,1.7,0.6,1.7l0,2.2l0.1,0.1c0.1,0.1,0.2,0.3,0.2,0.5v1.4
			c0,0.3-0.2,0.5-0.5,0.6l-0.2,0.1l-0.1,0.2c-0.2,0.7-0.6,1.4-1,2c-0.1,0.1-0.2,0.3-0.3,0.4l-0.1,0.1v1.4c0,0.6,0.3,1.2,0.9,1.5
			l3.3,1.7c0,0,0,0,0.1,0C16.7,27.5,16.6,27.5,16.6,27.6L16.6,27.6z M16.6,27.6"/>
	</g>
	<text transform="matrix(1 0 0 1 20.6985 14.267)" class="st3 st34 st35">+</text>
</g>
</svg>
