<?xml version="1.0" encoding="utf-8"?>
<!-- Generator: Adobe Illustrator 20.1.0, SVG Export Plug-In . SVG Version: 6.00 Build 0)  -->
<svg version="1.1" id="Capa_1" xmlns="http://www.w3.org/2000/svg" xmlns:xlink="http://www.w3.org/1999/xlink" x="0px" y="0px"
	 viewBox="0 0 17.5 21.5" style="enable-background:new 0 0 17.5 21.5;" xml:space="preserve">
<style type="text/css">
	.st0{fill:#F2F2F2;}
	.st1{fill:#FFFFFF;stroke:#BFBFBF;stroke-width:0.25;stroke-miterlimit:10;}
	.st2{fill:#FFFFFF;stroke:#BFBFBF;stroke-width:0.1857;stroke-miterlimit:10;}
	.st3{fill:#444444;}
	.st4{fill:#FFFFFF;}
	.st5{opacity:0.5;}
	.st6{opacity:0.25;}
	.st7{opacity:0.25;fill:none;stroke:#010400;stroke-width:0.5;stroke-miterlimit:10;}
	.st8{opacity:0.5;fill:none;stroke:#FFFFFF;stroke-miterlimit:10;}
	.st9{fill:#5FCDAA;}
	.st10{fill:#EFF0F2;}
	.st11{fill-rule:evenodd;clip-rule:evenodd;fill:#E6E6E6;}
	.st12{fill-rule:evenodd;clip-rule:evenodd;fill:#FFFFFF;}
	.st13{fill-rule:evenodd;clip-rule:evenodd;fill:#4D4D4D;}
	.st14{fill-rule:evenodd;clip-rule:evenodd;fill:#B3B3B3;}
	.st15{fill-rule:evenodd;clip-rule:evenodd;fill:#CCCCCC;}
	.st16{fill-rule:evenodd;clip-rule:evenodd;}
	.st17{fill-rule:evenodd;clip-rule:evenodd;fill:#F2CAA9;}
	.st18{fill-rule:evenodd;clip-rule:evenodd;fill:#3F73A1;}
	.st19{fill-rule:evenodd;clip-rule:evenodd;fill:#FFCD61;}
	.st20{fill-rule:evenodd;clip-rule:evenodd;fill:#FFAE00;}
	.st21{fill-rule:evenodd;clip-rule:evenodd;fill:#886734;}
	.st22{fill-rule:evenodd;clip-rule:evenodd;fill:#694F28;}
	.st23{fill-rule:evenodd;clip-rule:evenodd;fill:#BD9D6E;}
	.st24{fill-rule:evenodd;clip-rule:evenodd;fill:#F9A818;}
	.st25{fill-rule:evenodd;clip-rule:evenodd;fill:#5896CC;}
	.st26{fill:#4C8EB4;}
	.st27{fill:#2C577D;}
	.st28{fill:#F9A818;}
	.st29{fill-rule:evenodd;clip-rule:evenodd;fill:#2C577D;}
	.st30{fill-rule:evenodd;clip-rule:evenodd;fill:#F2837B;}
	.st31{fill-rule:evenodd;clip-rule:evenodd;fill:#EE4E42;}
	.st32{fill-rule:evenodd;clip-rule:evenodd;fill:#FFEABD;}
	.st33{fill:#444242;}
	.st34{opacity:0.25;fill:#444444;}
	.st35{fill:#FFFFFF;stroke:#BFBFBF;stroke-width:0.2217;stroke-miterlimit:10;}
	.st36{fill:#ED1941;}
	.st37{fill:none;stroke:#9A999E;stroke-width:0.2291;stroke-miterlimit:10;}
	.st38{fill:#F1F2F2;}
	.st39{fill:#211915;}
	.st40{fill:#FF6EDC;}
	.st41{fill:#CD2849;stroke:#444444;stroke-width:0.2291;stroke-miterlimit:10;}
	.st42{clip-path:url(#SVGID_4_);}
	.st43{clip-path:url(#SVGID_8_);}
	.st44{clip-path:url(#SVGID_12_);}
	.st45{clip-path:url(#SVGID_16_);}
	.st46{clip-path:url(#SVGID_20_);}
	.st47{clip-path:url(#SVGID_24_);}
	.st48{clip-path:url(#SVGID_28_);}
	.st49{clip-path:url(#SVGID_32_);}
	.st50{clip-path:url(#SVGID_36_);}
	.st51{clip-path:url(#SVGID_40_);}
	.st52{clip-path:url(#SVGID_44_);}
	.st53{clip-path:url(#SVGID_48_);}
	.st54{fill:none;stroke:#000000;stroke-width:0.25;stroke-miterlimit:10;}
</style>
<g>
	<path class="st3" d="M15.1,8V5.8c0-3.2-2.9-5.8-6.4-5.8C5.2,0,2.4,2.6,2.4,5.8V8C1,8.2,0,9.4,0,10.8v7.8c0,1.6,1.3,2.9,2.9,2.9
		h11.7c1.6,0,2.9-1.3,2.9-2.9v-7.8C17.5,9.4,16.5,8.2,15.1,8L15.1,8z M3.2,5.8c0-2.7,2.5-5,5.6-5c3.1,0,5.6,2.2,5.6,5v2.2H3.2V5.8z
		 M16.7,18.6c0,1.1-0.9,2.1-2.1,2.1H2.9c-1.1,0-2.1-0.9-2.1-2.1v-7.8c0-1.1,0.9-2.1,2.1-2.1h11.7c1.1,0,2.1,0.9,2.1,2.1V18.6z
		 M16.7,18.6"/>
	<path class="st3" d="M8.7,11.1c-0.9,0-1.6,0.7-1.6,1.6v2.4c0,0.9,0.7,1.6,1.6,1.6c0.9,0,1.6-0.7,1.6-1.6v-2.4
		C10.3,11.8,9.6,11.1,8.7,11.1L8.7,11.1z M9.5,15.1c0,0.4-0.4,0.8-0.8,0.8c-0.4,0-0.8-0.4-0.8-0.8v-2.4c0-0.4,0.4-0.8,0.8-0.8
		c0.4,0,0.8,0.4,0.8,0.8V15.1z M9.5,15.1"/>
</g>
</svg>
