<?xml version="1.0" encoding="utf-8"?>
<!-- Generator: Adobe Illustrator 20.1.0, SVG Export Plug-In . SVG Version: 6.00 Build 0)  -->
<svg version="1.1" id="Capa_1" xmlns="http://www.w3.org/2000/svg" xmlns:xlink="http://www.w3.org/1999/xlink" x="0px" y="0px"
	 viewBox="0 0 163.3 32.3" style="enable-background:new 0 0 163.3 32.3;" xml:space="preserve">
<style type="text/css">
	.st0{fill:#F2F2F2;}
	.st1{fill:#FFFFFF;stroke:#BFBFBF;stroke-width:0.25;stroke-miterlimit:10;}
	.st2{fill:#FFFFFF;stroke:#BFBFBF;stroke-width:0.1857;stroke-miterlimit:10;}
	.st3{fill:#444444;}
	.st4{fill:#FFFFFF;}
	.st5{opacity:0.5;}
	.st6{opacity:0.25;}
	.st7{opacity:0.25;fill:none;stroke:#010400;stroke-width:0.5;stroke-miterlimit:10;}
	.st8{opacity:0.5;fill:none;stroke:#FFFFFF;stroke-miterlimit:10;}
	.st9{fill:#5FCDAA;}
	.st10{fill:#EFF0F2;}
	.st11{fill-rule:evenodd;clip-rule:evenodd;fill:#E6E6E6;}
	.st12{fill-rule:evenodd;clip-rule:evenodd;fill:#FFFFFF;}
	.st13{fill-rule:evenodd;clip-rule:evenodd;fill:#4D4D4D;}
	.st14{fill-rule:evenodd;clip-rule:evenodd;fill:#B3B3B3;}
	.st15{fill-rule:evenodd;clip-rule:evenodd;fill:#CCCCCC;}
	.st16{fill-rule:evenodd;clip-rule:evenodd;}
	.st17{fill-rule:evenodd;clip-rule:evenodd;fill:#F2CAA9;}
	.st18{fill-rule:evenodd;clip-rule:evenodd;fill:#3F73A1;}
	.st19{fill-rule:evenodd;clip-rule:evenodd;fill:#FFCD61;}
	.st20{fill-rule:evenodd;clip-rule:evenodd;fill:#FFAE00;}
	.st21{fill-rule:evenodd;clip-rule:evenodd;fill:#886734;}
	.st22{fill-rule:evenodd;clip-rule:evenodd;fill:#694F28;}
	.st23{fill-rule:evenodd;clip-rule:evenodd;fill:#BD9D6E;}
	.st24{fill-rule:evenodd;clip-rule:evenodd;fill:#F9A818;}
	.st25{fill-rule:evenodd;clip-rule:evenodd;fill:#5896CC;}
	.st26{fill:#4C8EB4;}
	.st27{fill:#2C577D;}
	.st28{fill:#F9A818;}
	.st29{fill-rule:evenodd;clip-rule:evenodd;fill:#2C577D;}
	.st30{fill-rule:evenodd;clip-rule:evenodd;fill:#F2837B;}
	.st31{fill-rule:evenodd;clip-rule:evenodd;fill:#EE4E42;}
	.st32{fill-rule:evenodd;clip-rule:evenodd;fill:#FFEABD;}
	.st33{fill:#444242;}
	.st34{opacity:0.25;fill:#444444;}
	.st35{fill:#FFFFFF;stroke:#BFBFBF;stroke-width:0.2217;stroke-miterlimit:10;}
	.st36{fill:#ED1941;}
	.st37{fill:none;stroke:#9A999E;stroke-width:0.2291;stroke-miterlimit:10;}
	.st38{fill:#F1F2F2;}
	.st39{fill:#211915;}
	.st40{fill:#FF6EDC;}
	.st41{fill:#CD2849;stroke:#444444;stroke-width:0.2291;stroke-miterlimit:10;}
	.st42{clip-path:url(#SVGID_4_);}
	.st43{clip-path:url(#SVGID_8_);}
	.st44{clip-path:url(#SVGID_12_);}
	.st45{clip-path:url(#SVGID_16_);}
	.st46{clip-path:url(#SVGID_20_);}
	.st47{clip-path:url(#SVGID_24_);}
	.st48{clip-path:url(#SVGID_28_);}
	.st49{clip-path:url(#SVGID_32_);}
	.st50{clip-path:url(#SVGID_36_);}
	.st51{clip-path:url(#SVGID_40_);}
	.st52{clip-path:url(#SVGID_44_);}
	.st53{clip-path:url(#SVGID_48_);}
	.st54{fill:none;stroke:#000000;stroke-width:0.25;stroke-miterlimit:10;}
</style>
<g>
	<path class="st9" d="M28.6,26.5c-0.1,0.2-0.4,0.5-0.6,0.7c0.2-0.2,0.4-0.4,0.6-0.6c0.2-0.2,0.3-0.4,0.3-0.5c0.3-0.4,0,0.1,0.5-0.4
		c0.3-0.4,0.5-1,0.8-1.4l0,0c0.4-0.5,0.5-1,0.7-1.5c0.2-0.4,0.3-0.9,0.5-1.4l0,0.1c0.1-0.2,0.2-0.5,0.3-0.8c0.1-0.3,0.2-0.7,0.3-1.1
		c-0.1,0.2-0.2,0.4-0.1-0.1c0.1-0.4,0.2-0.8,0.2-1.1c0-0.3,0.1-0.6,0.2-0.9l-0.1-0.6c0-0.2,0-0.4,0-0.7c0-0.3,0-0.5,0-0.8
		c0-0.6-0.1-1.3-0.2-2.1c-0.3-1.6-0.9-3.3-1.8-4.9c-0.7-1.4-1.7-2.6-2.7-3.6c-1-1-2.2-2-3.6-2.7c-1.6-0.9-3.4-1.5-4.9-1.8
		c-0.8-0.1-1.5-0.2-2.1-0.2c-0.3,0-0.6,0-0.8,0c-0.3,0-0.5,0-0.7,0L14.7,0c-0.3,0-0.6,0.1-0.9,0.2c-0.3,0.1-0.7,0.1-1.1,0.2
		c-0.4,0.1-0.3,0-0.1-0.1c-0.4,0.1-0.7,0.2-1.1,0.3c-0.3,0.1-0.6,0.2-0.8,0.3l0.1,0c-0.5,0.2-1,0.3-1.4,0.5C9,1.6,8.5,1.7,7.9,2.1
		l0,0C7.5,2.4,7,2.7,6.6,2.9C6.1,3.3,6.6,3,6.2,3.4c-0.1,0-0.3,0.1-0.5,0.3C5.5,3.9,5.3,4.1,5.1,4.3C5.4,4,5.6,3.8,5.8,3.7
		C6,3.6,6.1,3.5,6.2,3.5C5.6,3.9,5.1,4.4,4.6,4.8c0.1-0.1,0.1-0.1,0.2-0.1C4.7,4.7,4.6,4.8,4.6,4.9c0,0,0.1-0.1,0.2-0.2
		c0,0-0.1,0.1-0.2,0.2C3.9,5.7,3.8,5.7,3.8,5.8c0,0.1-0.1,0.1-0.7,1c-0.8,1.1-2.5,3.9-2.9,7.1c-0.6,3.2,0.2,6.3,0.5,7.4
		C1,22,1.4,22.8,1.8,23.6c0,0,0,0.1,0,0.1c0,0,0.1,0.1,0.1,0.1C2,24,2.1,24.2,2.2,24.3c0.1,0.2,0.2,0.4,0.3,0.6l0,0
		c0,0,0.1,0.1,0.1,0.2c0,0,0,0,0,0c0,0,0,0,0,0.1c0,0,0,0,0,0C3,25.5,3.3,26,3.6,26.4c0.3,0.3,0.6,0.6,0.9,1
		c0.1,0.1,0.1,0.1,0.2,0.2c0,0,0,0,0,0c0,0,0,0,0,0c0.1,0.1,0.1,0.1,0.2,0.2c0.3,0.3,0.6,0.6,1,0.9c0.4,0.3,0.8,0.6,1.2,0.9
		c0,0,0,0,0,0c0,0,0,0,0.1,0c0,0,0,0,0,0c0.1,0,0.1,0.1,0.2,0.1l0,0C7.6,29.9,7.8,30,8,30.1c0.2,0.1,0.3,0.2,0.5,0.3
		c0,0,0.1,0.1,0.1,0.1c0,0,0.1,0,0.1,0c0.8,0.4,1.6,0.8,2.3,1.1c1.1,0.3,4.3,1.1,7.4,0.5c3.2-0.4,6-2.1,7.1-2.9c1-0.7,1-0.7,1-0.7
		c0,0,0.1,0,0.9-0.8c0.1-0.1,0.2-0.2,0.2-0.2c-0.1,0.1-0.2,0.2-0.2,0.2c0,0,0.1-0.1,0.2-0.2c0,0-0.1,0.1-0.1,0.2
		c0.4-0.5,0.9-1,1.3-1.6C28.8,26.2,28.7,26.3,28.6,26.5z M16,19.1c-0.9,1.7-2.7,2.9-4.6,3.2c1.9-0.7,2.3-2.9,2.3-6.2
		c0-3.2-0.3-5.5-2.3-6.2c1.9,0.4,3.6,1.5,4.6,3.3c0.9-1.7,2.7-2.8,4.6-3.3c-2,0.7-2.3,3-2.3,6.2c0,3.2,0.4,5.5,2.3,6.2
		C18.7,22,17,20.8,16,19.1z"/>
	<g>
		<path class="st9" d="M60.1,15.3c0,0.6-0.1,1.2-0.2,1.8c-0.2,0.6-0.4,1.2-0.7,1.8c-0.3,0.6-0.6,1.1-1,1.6c-0.4,0.5-0.8,0.9-1.3,1.3
			c-0.2,0.1-0.4,0.3-0.8,0.5c-0.4,0.2-0.8,0.4-1.3,0.5c-0.4,0.2-0.9,0.3-1.3,0.5c-0.4,0.1-0.7,0.2-0.9,0.2c-0.2,0-0.4,0-0.6,0.1
			c-0.2,0-0.4,0-0.6,0v0c-0.2,0-0.4,0-0.6,0c-0.2,0-0.4,0-0.6,0c-0.1,0-0.1,0-0.2,0c-0.1,0-0.1,0-0.2,0c-0.1,0-0.2,0-0.3,0
			c-0.2-0.1-0.4-0.1-0.6-0.2c-0.2,0-0.3-0.2-0.3-0.5c-0.1-0.5-0.1-0.9-0.1-1.4c0-0.5,0-1,0-1.4c0-0.1,0-0.2,0-0.3c0-0.1,0-0.2,0-0.3
			c0-0.1,0-0.3,0-0.4c0-0.1,0-0.3,0-0.4c0-0.3,0-0.6,0-0.9s0-0.6,0-0.9c0-0.2,0-0.4,0-0.7c0-0.2,0-0.4,0-0.7c0-0.2,0-0.4,0-0.6
			c0-0.2,0-0.4,0-0.6c0-0.2,0-0.4,0-0.7c0-0.2,0-0.4,0-0.7c0-0.1,0-0.2,0-0.3c0-0.1,0-0.2,0-0.3c0-0.1,0-0.2,0-0.5
			c0-0.2,0-0.4-0.1-0.4c0-0.1-0.1-0.3-0.1-0.4c0-0.1,0-0.2,0.1-0.4c0-0.1,0.1-0.2,0.1-0.4c0-0.2,0-0.4-0.1-0.6
			c0-0.2-0.1-0.4-0.1-0.6c0-0.2,0-0.4,0.1-0.5c0.1-0.1,0.2-0.2,0.3-0.2c0.1,0,0.3-0.1,0.5,0c0.2,0,0.3,0,0.5,0c0.2,0,0.5,0,0.8,0
			s0.5,0,0.8-0.1c0.1,0,0.2,0,0.2,0c0.1,0,0.2,0,0.3,0c0.3,0,0.5,0,0.8,0.1c0.3,0.1,0.5,0.1,0.8,0.2c0.1,0,0.3,0.1,0.4,0.1
			c0.1,0,0.3,0.1,0.4,0.1c0.3,0.1,0.7,0.2,1,0.4c0.4,0.1,0.7,0.3,1,0.5c0.1,0.1,0.2,0.1,0.2,0.2c0.1,0.1,0.2,0.1,0.3,0.2
			c1,0.6,1.8,1.4,2.4,2.3C59.8,13.1,60.1,14.2,60.1,15.3z M56.4,15.4c0-0.1,0-0.3-0.1-0.4c0-0.2-0.1-0.3-0.1-0.4
			c-0.1-0.3-0.2-0.7-0.5-1c-0.3-0.3-0.5-0.6-0.8-0.8c-0.2-0.1-0.3-0.2-0.5-0.3c-0.1-0.1-0.3-0.2-0.5-0.3L53.5,12
			c-0.2-0.1-0.4-0.2-0.7-0.3c-0.3-0.1-0.5-0.1-0.7-0.1c-0.1,0-0.1,0-0.1,0.1c0,0.1,0,0.1,0,0.2c0,0.4,0,0.8,0,1.2c0,0.4,0,0.8,0,1.3
			c0,0.4,0,0.9,0,1.3c0,0.4,0,0.9,0,1.3c0,0.2,0,0.4,0,0.6s0,0.4,0,0.6c0,0.2,0,0.4,0,0.5c0,0.2,0.1,0.4,0.1,0.6
			c0,0.1,0,0.2,0.1,0.3c0.1,0.1,0.2,0.1,0.3,0.1c0.1,0,0.2,0,0.2,0c0.1,0,0.2,0,0.2,0c0.2,0,0.4-0.1,0.6-0.1c0.2,0,0.4-0.1,0.6-0.2
			c0.1-0.1,0.3-0.2,0.4-0.3c0.2-0.1,0.3-0.2,0.4-0.3c0.1-0.1,0.1-0.1,0.2-0.2c0-0.1,0.1-0.1,0.2-0.2c0.1-0.1,0.3-0.3,0.3-0.4
			c0.1-0.2,0.2-0.3,0.2-0.5c0.1-0.1,0.1-0.3,0.2-0.4c0.1-0.2,0.1-0.3,0.1-0.5c0-0.2,0.1-0.4,0.1-0.5C56.4,15.7,56.4,15.5,56.4,15.4z
			"/>
		<path class="st9" d="M72.1,20.7c0,0.2,0,0.4-0.1,0.7c0,0.2-0.1,0.4-0.1,0.7c0,0.1,0,0.2,0,0.3c0,0.1,0,0.2,0,0.3
			c0,0.3,0,0.5-0.1,0.6c-0.1,0.2-0.3,0.3-0.5,0.3c-0.2,0-0.3,0.1-0.5,0.1c-0.1,0-0.3,0-0.5,0c-0.3,0-0.6,0-0.9,0
			c-0.3,0-0.6-0.1-0.8-0.2c-0.2-0.1-0.4-0.2-0.4-0.5c0-0.1,0-0.2,0-0.4c0-0.1,0-0.2,0-0.4c0-0.2,0-0.4,0-0.7c0-0.2,0-0.4,0-0.7
			c0-0.2,0-0.4,0-0.7s0-0.4,0-0.7c0-0.1,0-0.1,0-0.2c0-0.1,0-0.1,0-0.2c0-0.3,0-0.6,0-0.8c0-0.3,0-0.5,0-0.8c0-0.1,0-0.2,0-0.4
			c0-0.1,0-0.2,0-0.4c0-0.2,0-0.3,0-0.5c0-0.2,0-0.4,0-0.5c0-0.5,0-1,0-1.5c0-0.5,0-1,0-1.5c0-0.3,0-0.6,0-0.9c0-0.3,0-0.6,0-0.9
			l0-0.4c0-0.2,0-0.4,0-0.6c0-0.2,0-0.4,0-0.6c0-0.1,0-0.2,0-0.2c0-0.1,0-0.2,0-0.2c0-0.1,0.1-0.3,0.3-0.4c0.2-0.1,0.3-0.1,0.5-0.1
			h1.8c0.2,0,0.4,0,0.5,0.1c0.1,0.1,0.2,0.1,0.4,0.2C71.9,8.7,72,8.8,72,9c0,0.1,0,0.3,0,0.4c0,0.1,0,0.3,0,0.4s0,0.3,0,0.4
			c0,0.1,0,0.3,0,0.5c0,0.3,0,0.6,0,0.9c0,0.3,0,0.6,0,0.9V14c0,0.4,0,0.7,0.1,1.1c0,0.4,0,0.7,0,1.1c0,0.2,0,0.4,0,0.7
			c0,0.2,0,0.4-0.1,0.6v0.1c0,0.1,0,0.2,0,0.3c0,0.1,0.1,0.2,0.1,0.3c0,0.2,0,0.4,0,0.7c0,0.2,0,0.5,0,0.7c0,0.2,0,0.4,0.1,0.6
			C72.1,20.3,72.1,20.5,72.1,20.7z"/>
		<path class="st9" d="M93,8.6c0,0.1,0,0.3-0.1,0.4c-0.1,0.2-0.3,0.5-0.4,0.7c-0.2,0.2-0.3,0.5-0.4,0.7l-0.6,1
			c-0.2,0.3-0.4,0.7-0.6,1c-0.2,0.3-0.4,0.7-0.5,1c-0.1,0.3-0.3,0.6-0.4,0.9c-0.2,0.3-0.3,0.6-0.5,0.9c-0.1,0.2-0.2,0.4-0.3,0.6
			c-0.1,0.2-0.2,0.4-0.3,0.6c0,0.1-0.1,0.2-0.2,0.3c-0.1,0.1-0.1,0.2-0.2,0.3c-0.1,0.1-0.1,0.2-0.2,0.3c0,0.1-0.1,0.2-0.1,0.4v0.2
			c0,0.3,0,0.5,0,0.7c0,0.2,0,0.5,0,0.7c0,0.2,0,0.4,0,0.6c0,0.2,0,0.4,0,0.6c0,0.1,0,0.3,0,0.4c0,0.1,0,0.3,0,0.4
			c0,0.1,0,0.1,0,0.2c0,0.1,0,0.1,0,0.2c0,0.2,0,0.4,0,0.6c0,0.2-0.1,0.4-0.1,0.6c0,0.2,0,0.3-0.1,0.4c-0.1,0.1-0.2,0.2-0.3,0.2
			c-0.1,0-0.3,0.1-0.4,0.1c-0.1,0-0.3,0-0.4,0c-0.2,0-0.4,0-0.6-0.1c-0.2,0-0.4-0.1-0.6-0.1c-0.4,0-0.7-0.1-0.8-0.2
			c-0.2-0.1-0.2-0.4-0.2-0.8c0-0.6,0-1.1,0-1.7c0-0.6,0-1.1,0-1.7v-1c0,0,0-0.1,0-0.1c0,0,0-0.1,0-0.1c-0.2-0.2-0.3-0.5-0.4-0.7
			c-0.1-0.3-0.2-0.5-0.4-0.7l-1-1.9c-0.1-0.1-0.2-0.3-0.2-0.4c-0.1-0.1-0.2-0.3-0.2-0.4c-0.1-0.2-0.2-0.4-0.3-0.6
			c-0.1-0.2-0.3-0.4-0.4-0.6c-0.2-0.5-0.5-0.9-0.7-1.4c-0.3-0.4-0.5-0.9-0.8-1.3c0,0-0.1-0.1-0.1-0.2c-0.1-0.1-0.1-0.2-0.2-0.4
			c-0.1-0.1-0.1-0.3-0.2-0.4c-0.1-0.1-0.1-0.2-0.1-0.2c0-0.1,0.1-0.3,0.2-0.4c0.1-0.1,0.3-0.1,0.4-0.1h1.5c0.1,0,0.3,0,0.5,0
			c0.2,0,0.4,0,0.5,0c0.2,0,0.4,0,0.5,0.1c0.2,0,0.3,0.1,0.4,0.2c0.1,0.2,0.3,0.4,0.4,0.6c0.1,0.2,0.2,0.4,0.3,0.6l1.3,2.5
			c0.1,0.2,0.2,0.4,0.3,0.7c0.1,0.2,0.2,0.4,0.4,0.7c0.2-0.3,0.4-0.6,0.5-0.9s0.3-0.7,0.5-1c0.3-0.5,0.5-1,0.7-1.5
			c0.2-0.5,0.5-1,0.7-1.5c0.1-0.1,0.2-0.2,0.3-0.3c0.1-0.1,0.2-0.1,0.4-0.1c0.1,0,0.3,0,0.4,0c0.3,0,0.6,0,1,0.1
			c0.3,0,0.6,0.1,1,0.1c0.2,0,0.3,0,0.5,0c0.1,0,0.3,0,0.5,0.1c0.1,0,0.2,0.1,0.2,0.1C92.9,8.4,92.9,8.5,93,8.6L93,8.6z"/>
		<path class="st9" d="M110.8,10.9c0,0.1,0,0.2,0,0.3c0,0.2,0,0.3-0.1,0.5c0,0.2,0,0.4-0.1,0.5c0,0.2,0,0.3,0,0.3
			c0,0.1-0.1,0.1-0.1,0.2c-0.1,0.1-0.1,0.1-0.2,0.1c-0.1,0-0.2,0-0.3-0.1c-0.1-0.1-0.3-0.2-0.5-0.3c-0.2-0.1-0.3-0.2-0.5-0.4
			c-0.2-0.1-0.3-0.2-0.3-0.3c-0.1,0-0.2-0.1-0.4-0.1c-0.2-0.1-0.4-0.1-0.6-0.1c-0.2,0-0.4-0.1-0.6-0.1c-0.2,0-0.3,0-0.4,0
			c-0.2,0-0.5,0-0.7,0.1c-0.1,0-0.3,0.1-0.4,0.1c-0.1,0-0.3,0.1-0.4,0.1c-0.2,0.1-0.4,0.2-0.6,0.4c-0.2,0.1-0.4,0.3-0.6,0.5
			c-0.2,0.2-0.4,0.4-0.5,0.6c-0.2,0.2-0.3,0.4-0.4,0.6c-0.1,0.2-0.2,0.4-0.3,0.7c0,0.2-0.1,0.5-0.1,0.7c0,0.2,0,0.3,0,0.5
			c0,0.2,0,0.3,0,0.5c0,0.3,0,0.6,0.1,0.9c0.1,0.3,0.2,0.6,0.3,0.9c0,0.1,0.1,0.1,0.1,0.2s0.1,0.1,0.1,0.2c0.1,0.1,0.1,0.2,0.2,0.3
			c0,0.1,0.1,0.2,0.2,0.3c0.1,0.1,0.2,0.2,0.4,0.4c0.1,0.1,0.3,0.2,0.4,0.3c0.2,0.1,0.4,0.2,0.7,0.3c0.2,0.1,0.5,0.2,0.7,0.2
			c0.4,0.2,0.8,0.2,1.2,0.2c0.3,0,0.6,0,1-0.1c0.4-0.1,0.7-0.2,1-0.4c0.2-0.1,0.3-0.2,0.6-0.4c0.2-0.2,0.4-0.3,0.6-0.3
			c0,0,0.1,0,0.1,0c0,0,0.1,0,0.1,0c0.1,0,0.2,0.1,0.2,0.2c0,0.1,0.1,0.2,0.1,0.3c0,0.1,0,0.3,0,0.4s0,0.2,0,0.3c0,0.4,0,0.7,0,1.1
			c0,0.4,0,0.7-0.1,1.1c0,0.3-0.2,0.5-0.4,0.6c-0.3,0.2-0.6,0.3-0.9,0.4c-0.3,0.1-0.5,0.2-0.8,0.2c-0.3,0-0.5,0.1-0.8,0.1
			s-0.6,0-0.9,0c-0.3,0-0.5,0-0.8,0c-0.3,0-0.5,0-0.8-0.1c-0.2-0.1-0.3-0.1-0.5-0.1c-0.2,0-0.3-0.1-0.5-0.1c-0.1,0-0.3-0.1-0.5-0.2
			c-0.2-0.1-0.5-0.2-0.7-0.4c-0.2-0.1-0.5-0.3-0.7-0.4c-0.2-0.1-0.4-0.3-0.5-0.4l-0.5-0.5c-0.1-0.1-0.1-0.2-0.2-0.2
			c-0.1-0.2-0.2-0.3-0.4-0.5c-0.1-0.2-0.2-0.3-0.4-0.5c-0.3-0.4-0.5-0.9-0.7-1.3c-0.2-0.4-0.3-0.9-0.4-1.4c0-0.1,0-0.2-0.1-0.3
			c0-0.1-0.1-0.3-0.1-0.4c0-0.1,0-0.3-0.1-0.4c0-0.1,0-0.2,0-0.3c0-0.1,0-0.1,0-0.2c0-0.1,0-0.1,0-0.2c0-0.2,0-0.4,0-0.6
			c0-0.2,0-0.4,0.1-0.6c0-0.2,0.1-0.3,0.1-0.5c0.1-0.2,0.1-0.3,0.2-0.5c0.2-0.6,0.5-1.3,0.9-1.9c0.4-0.6,0.9-1.1,1.4-1.5
			c0.2-0.1,0.3-0.3,0.5-0.4c0.2-0.1,0.3-0.2,0.5-0.4c0.2-0.2,0.4-0.3,0.7-0.4c0.3-0.1,0.5-0.2,0.7-0.3c0.3-0.1,0.6-0.2,1-0.4
			c0.4-0.1,0.7-0.2,1.1-0.2c0.1,0,0.2,0,0.3,0c0.1,0,0.2,0,0.2,0c0.1,0,0.2,0,0.4,0c0.1,0,0.2,0,0.4,0c0.2,0,0.3,0,0.5,0
			c0.2,0,0.3,0,0.5,0c0.1,0,0.2,0,0.4,0.1c0.1,0,0.2,0.1,0.4,0.1c0.2,0,0.4,0.1,0.6,0.3s0.4,0.3,0.5,0.4c0.1,0.1,0.2,0.2,0.2,0.3
			s0.1,0.3,0.1,0.4c0,0.2,0,0.4,0,0.6C110.8,10.6,110.8,10.8,110.8,10.9z"/>
		<path class="st9" d="M126.4,22.4c0,0.1,0,0.2,0,0.3c0,0.1,0,0.2,0,0.3c0,0.1-0.1,0.2-0.1,0.3c0,0.1-0.1,0.1-0.2,0.2
			c-0.1,0-0.2,0.1-0.4,0.1c-0.1,0-0.3,0.1-0.4,0.1c-0.1,0-0.1,0-0.2,0c-0.1,0-0.1,0-0.2,0c-0.3,0-0.6,0-0.9,0c-0.3,0-0.6,0-0.9,0
			c-0.1,0-0.3,0-0.4,0c-0.1,0-0.3,0-0.4,0c-0.2,0-0.4,0-0.6,0c-0.2,0-0.4,0-0.6,0c-0.4,0-0.8,0-1.2,0s-0.8-0.1-1.1-0.2
			c0,0-0.1-0.1-0.1-0.1c0-0.1-0.1-0.1-0.1-0.2c0-0.1-0.1-0.2-0.1-0.3c0-0.1,0-0.2,0-0.2c0-0.1,0-0.2,0-0.4c0-0.1,0-0.2,0-0.4l0,0
			v-1.5c0-0.1,0-0.2,0-0.3c0-0.1,0-0.2,0-0.3c0-0.1,0-0.2,0-0.3c0-0.1,0-0.2,0-0.3c0-0.1,0-0.2,0-0.2c0-0.1,0-0.2,0-0.3
			c0-0.3,0-0.5,0-0.8c0-0.3,0-0.5,0-0.8c0-0.1,0-0.2,0-0.3c0-0.1,0-0.2,0-0.3c0-0.1,0-0.2,0-0.3c0-0.1,0-0.2,0-0.3
			c0-0.1,0-0.2,0-0.3c0-0.1,0-0.2,0-0.3c0-0.4,0-0.7,0-1.1s0-0.7,0-1.1c0-0.1,0-0.3,0-0.4c0-0.1,0-0.3,0-0.4c0-0.1,0-0.2,0-0.3
			c0-0.1,0-0.2,0-0.3c0-0.2,0-0.3,0-0.5c0-0.2,0-0.3,0-0.5c0-0.2,0-0.3,0-0.5c0-0.1,0-0.3,0-0.5c0-0.2,0-0.4,0-0.6
			c0-0.2,0-0.4,0-0.6c0-0.3,0.1-0.6,0.2-0.6c0.2-0.1,0.4-0.1,0.7-0.1c0.2,0,0.3,0,0.5,0.1c0.2,0,0.3,0.1,0.5,0.1c0.1,0,0.2,0,0.4,0
			c0.1,0,0.2,0,0.4,0c0.1,0,0.3,0,0.4,0c0.1,0,0.2,0,0.3,0c0.1,0,0.2,0.1,0.2,0.2c0.1,0.1,0.1,0.2,0.1,0.4c0,0.3,0,0.5-0.1,0.7
			c0,0.3-0.1,0.5-0.1,0.7c0,0.1,0,0.2,0,0.3c0,0.1,0,0.2,0,0.3c0,0.2,0,0.4,0,0.6c0,0.2,0,0.4,0,0.6c0,0.2,0,0.4,0,0.5
			c0,0.2,0,0.4,0,0.5c0,0.2,0,0.3,0,0.5c0,0.2,0,0.3,0,0.5c0,0.2,0,0.4,0,0.6c0,0.2,0,0.4,0,0.6c0,0.2,0,0.4,0,0.6
			c0,0.2,0,0.4,0,0.6c0,0.2,0,0.5,0,0.7c0,0.2,0,0.4,0,0.7c0,0.2,0,0.4,0,0.6c0,0.2,0,0.4,0,0.6c0,0.1,0,0.3,0,0.4
			c0,0.1,0,0.3,0,0.4c0,0.1,0,0.1,0.1,0.2c0,0,0.1,0,0.2,0c0.2,0,0.4,0,0.5,0c0.2,0,0.4,0,0.6,0c0.3,0,0.6,0,0.9,0
			c0.3,0,0.6,0,0.9,0c0.1,0,0.1,0,0.2,0c0.1,0,0.1,0,0.2,0c0.1,0,0.2,0,0.3,0.1c0.1,0.1,0.1,0.1,0.2,0.2c0,0.1,0,0.2,0.1,0.4
			c0,0.2,0,0.4,0,0.6c0,0.2,0,0.4,0,0.6C126.4,22.1,126.4,22.3,126.4,22.4z"/>
		<path class="st9" d="M144.2,13.5c0,0.1,0,0.2,0,0.3c0,0.1,0,0.2,0,0.3c0,0.2,0,0.4,0,0.7s0,0.4,0,0.6c0,0.3,0,0.5-0.1,0.8
			c0,0.3-0.1,0.5-0.1,0.8c0,0.3,0,0.5,0,0.9c0,0.3,0,0.7-0.1,1c0,0.3-0.1,0.7-0.1,1c-0.1,0.3-0.1,0.6-0.2,0.8c-0.4,1-1,1.7-1.7,2.2
			c-0.7,0.5-1.6,0.7-2.7,0.7c-0.4,0-0.8,0-1.2-0.1c-0.4,0-0.8-0.1-1.2-0.2c-0.4-0.1-0.8-0.3-1.1-0.5c-0.3-0.2-0.6-0.5-0.9-0.8
			c-0.5-0.7-0.8-1.5-1-2.3c0-0.2-0.1-0.3-0.1-0.5c-0.1-0.2-0.1-0.3-0.1-0.5c0-0.2,0-0.4,0-0.6c0-0.2-0.1-0.4-0.1-0.6
			c0,0,0-0.1,0-0.1c0,0,0-0.1,0-0.1c0-0.1,0-0.2,0-0.3c0-0.1,0-0.2,0-0.3c0-0.3,0-0.5,0-0.8s0-0.5,0-0.8c0-0.2,0-0.4,0-0.6
			c0-0.2,0-0.4,0-0.6c0-0.2,0-0.4,0-0.6c0-0.2,0-0.4-0.1-0.6c0-0.1,0-0.2,0-0.3c0-0.1,0-0.2,0-0.3c0-0.1,0-0.2,0-0.3
			c0-0.2,0-0.3,0-0.5c0-0.1,0-0.3,0-0.4c0-0.4,0-0.7,0-1.1c0-0.4,0-0.7,0.1-1c0-0.2,0.1-0.3,0.1-0.4c0.1-0.1,0.2-0.2,0.3-0.2
			c0.2,0,0.3,0,0.5-0.1c0.2,0,0.3,0,0.5,0c0.2,0,0.4,0,0.6,0c0.2,0,0.4,0,0.6,0c0.2,0,0.3,0.1,0.4,0.2c0.1,0,0.1,0.1,0.2,0.2
			s0.1,0.1,0.1,0.2c0,0,0,0.1,0,0.2c0,0.1,0,0.2,0,0.3c0,0.1,0,0.2,0,0.3c0,0.1,0,0.2,0,0.2c0,0.1,0,0.2,0,0.3c0,0.1,0,0.2,0,0.3
			c0,0.4,0,0.8,0.1,1.1c0,0.4,0.1,0.7,0.1,1.1c0,0.3,0,0.6,0,0.8c0,0.3,0,0.5,0,0.8c0,0.2,0,0.4,0,0.5c0,0.2,0,0.4,0,0.5
			c0,0.3,0,0.7,0,1c0,0.4,0,0.7,0.1,1.1c0,0.3,0.1,0.6,0.1,0.9c0,0.3,0.1,0.6,0.3,0.9c0.1,0.3,0.3,0.5,0.5,0.6
			c0.2,0.2,0.5,0.3,0.9,0.3c0.6,0,1-0.2,1.3-0.5c0.3-0.3,0.4-0.8,0.4-1.4c0-0.1,0-0.3,0-0.4c0-0.1,0-0.3,0-0.4c0-0.4,0-0.8,0-1.1
			c0-0.4,0-0.7,0-1.1c0-0.1,0-0.2,0-0.3c0-0.1,0-0.2,0-0.3c0-0.2,0-0.3,0-0.5c0-0.2,0-0.4,0-0.5c0-0.1,0-0.2,0-0.2
			c0-0.1,0-0.2,0-0.2c0-0.1,0-0.2,0-0.3c0-0.1,0-0.2,0-0.3c0-0.4,0-0.8-0.1-1.2c0-0.4-0.1-0.8-0.1-1.2c0-0.2,0-0.4,0-0.6
			c0-0.2,0-0.4,0-0.6c0-0.2,0.1-0.4,0.3-0.5c0.2-0.1,0.4-0.1,0.6-0.1c0.3,0,0.6,0,1,0c0.4,0,0.7,0,1,0.1c0.1,0,0.3,0.1,0.3,0.2
			c0.1,0.1,0.1,0.2,0.1,0.3c0,0.1,0.1,0.3,0.1,0.5s0,0.5,0,0.7c0,0.2,0,0.5,0,0.7c0,0.2,0,0.4,0,0.5h0v0.7c0,0.1,0,0.2,0,0.2
			s0,0.2,0,0.3c0,0.2,0,0.4,0,0.5C144.2,13.2,144.2,13.3,144.2,13.5z"/>
		<path class="st9" d="M163.3,18.5c0,0.7-0.1,1.4-0.3,2c-0.1,0.3-0.2,0.5-0.3,0.7c-0.1,0.2-0.3,0.4-0.5,0.6
			c-0.1,0.2-0.3,0.3-0.4,0.4c-0.2,0.1-0.3,0.2-0.4,0.3c-0.2,0.2-0.3,0.3-0.5,0.4c-0.2,0.1-0.3,0.2-0.6,0.3c-0.2,0.1-0.3,0.2-0.4,0.3
			c-0.1,0.1-0.2,0.1-0.5,0.1c-0.3,0-0.6,0-0.9,0c-0.3,0-0.6,0-0.9,0c-0.1,0-0.3,0-0.4,0c-0.1,0-0.3,0-0.4,0c-0.3,0-0.6,0-0.9,0
			c-0.3,0-0.6,0-0.9,0c-0.2,0-0.5,0-0.7-0.1c-0.1,0-0.3,0-0.5,0s-0.4,0-0.6,0c-0.2,0-0.4-0.1-0.5-0.1c-0.2-0.1-0.3-0.2-0.3-0.4
			c0-0.1,0-0.1,0-0.2s0-0.1,0-0.2c0-0.2,0-0.3,0-0.5c0-0.2,0-0.3,0-0.5c0-0.2,0-0.4,0-0.6c0-0.2,0-0.4,0-0.6c0-0.1,0-0.3,0-0.4
			c0-0.1,0-0.3,0-0.4c0-0.1,0-0.2,0-0.2c0-0.1,0-0.2,0-0.2c0-0.3,0-0.7,0-1c0-0.3,0-0.6,0-1c0-0.1,0-0.2,0-0.3c0-0.1,0-0.2,0-0.3
			c0-0.1,0-0.1,0-0.2c0-0.1,0-0.1,0-0.2c0-0.2,0-0.4,0-0.6c0-0.2,0-0.4,0-0.6c0-0.1,0-0.2,0-0.3c0-0.1,0-0.2,0-0.3
			c0-0.1,0-0.2-0.1-0.3c0-0.1-0.1-0.2-0.1-0.3c0-0.1,0-0.2,0.1-0.3c0-0.1,0.1-0.2,0.1-0.3c0-0.1,0-0.1,0-0.2c0-0.1,0-0.2,0-0.2
			c0-0.2,0-0.4,0-0.7c0-0.2,0-0.4,0-0.7v-2c0-0.4,0.1-0.6,0.3-0.8c0.2-0.1,0.5-0.2,0.8-0.2c0.1,0,0.1,0,0.2,0c0.1,0,0.1,0,0.2,0
			s0.1,0,0.2,0c0.1,0,0.1,0,0.2,0h0.5c0.4,0,0.7,0,1-0.1c0.3-0.1,0.7-0.1,1-0.1c0.3,0,0.7,0,1,0.1c0.3,0.1,0.7,0.1,1,0.1
			c0.2,0,0.5,0.1,0.7,0.1c0.2,0,0.5,0.1,0.7,0.2c0,0,0.1,0.1,0.2,0.1c0.1,0.1,0.2,0.1,0.3,0.2c0.1,0.1,0.2,0.2,0.3,0.2
			c0.1,0.1,0.2,0.1,0.2,0.1c0.1,0.1,0.2,0.2,0.3,0.4c0.1,0.1,0.2,0.2,0.3,0.4c0.1,0.1,0.2,0.2,0.3,0.4c0.1,0.1,0.1,0.3,0.2,0.4
			c0.1,0.3,0.2,0.5,0.3,0.8c0.1,0.3,0.1,0.5,0.1,0.8c0,0.2,0,0.4-0.1,0.6c0,0.2-0.1,0.4-0.1,0.6c0,0.3-0.1,0.6-0.2,0.8
			c-0.1,0.2-0.3,0.5-0.5,0.7c-0.1,0.1-0.1,0.2-0.1,0.2c0,0.1,0,0.2,0.1,0.2c0,0,0.1,0.1,0.1,0.1c0,0,0.1,0.1,0.1,0.1
			c0.3,0.4,0.5,0.9,0.7,1.3C163.1,17.5,163.3,18,163.3,18.5z M159.8,19c0-0.3,0-0.6-0.1-0.9c0-0.3-0.2-0.5-0.4-0.8
			c-0.1-0.1-0.2-0.2-0.5-0.2c-0.2-0.1-0.4-0.1-0.6-0.1c-0.2,0-0.3-0.1-0.5-0.1c-0.2,0-0.3,0-0.5,0c-0.2,0-0.4,0-0.6,0
			c-0.2,0-0.4,0-0.6,0.1c-0.1,0-0.1,0-0.2,0c0,0,0,0.1,0,0.2v1.3c0,0.6,0,1.3,0.1,1.9c0,0.1,0,0.2,0.1,0.2c0,0,0.1,0,0.2,0
			c0.1,0,0.3,0,0.6,0c0.2,0,0.5,0,0.7,0c0.3,0,0.5,0,0.7-0.1c0.2,0,0.4-0.1,0.5-0.1c0.2-0.1,0.4-0.2,0.5-0.4
			c0.1-0.2,0.3-0.3,0.4-0.5C159.8,19.4,159.8,19.2,159.8,19z M159.2,12.7c0-0.1,0-0.2,0-0.3c0-0.1,0-0.2-0.1-0.3L159,12
			c-0.2-0.2-0.4-0.3-0.5-0.4c-0.1-0.1-0.3-0.1-0.6-0.1s-0.5,0-0.9,0s-0.6,0-0.9,0.1c-0.1,0-0.1,0.1-0.1,0.1c0,0.1-0.1,0.2-0.1,0.4
			c0,0.1,0,0.3,0,0.5s0,0.3,0,0.5c0,0.2,0,0.3,0,0.4v0.2c0,0.1,0,0.2,0,0.2c0,0,0.1,0.1,0.2,0.1c0.2,0,0.4,0.1,0.5,0.1
			c0.2,0,0.4,0,0.5,0c0.2,0,0.5,0,0.7,0c0.2,0,0.4-0.1,0.6-0.2c0.2-0.1,0.3-0.2,0.5-0.4C159.1,13.2,159.2,13,159.2,12.7z"/>
	</g>
</g>
</svg>
