<?xml version="1.0" encoding="utf-8"?>
<!-- Generator: Adobe Illustrator 20.1.0, SVG Export Plug-In . SVG Version: 6.00 Build 0)  -->
<svg version="1.1" id="Capa_1" xmlns="http://www.w3.org/2000/svg" xmlns:xlink="http://www.w3.org/1999/xlink" x="0px" y="0px"
	 viewBox="0 0 19.1 19.1" style="enable-background:new 0 0 19.1 19.1;" xml:space="preserve">
<style type="text/css">
	.st0{fill:#F2F2F2;}
	.st1{fill:#FFFFFF;stroke:#BFBFBF;stroke-width:0.25;stroke-miterlimit:10;}
	.st2{fill:#FFFFFF;stroke:#BFBFBF;stroke-width:0.1857;stroke-miterlimit:10;}
	.st3{fill:#444444;}
	.st4{fill:#FFFFFF;}
	.st5{opacity:0.5;}
	.st6{opacity:0.25;}
	.st7{opacity:0.25;fill:none;stroke:#010400;stroke-width:0.5;stroke-miterlimit:10;}
	.st8{opacity:0.5;fill:none;stroke:#FFFFFF;stroke-miterlimit:10;}
	.st9{fill:#5FCDAA;}
	.st10{fill:#EFF0F2;}
	.st11{fill-rule:evenodd;clip-rule:evenodd;fill:#E6E6E6;}
	.st12{fill-rule:evenodd;clip-rule:evenodd;fill:#FFFFFF;}
	.st13{fill-rule:evenodd;clip-rule:evenodd;fill:#4D4D4D;}
	.st14{fill-rule:evenodd;clip-rule:evenodd;fill:#B3B3B3;}
	.st15{fill-rule:evenodd;clip-rule:evenodd;fill:#CCCCCC;}
	.st16{fill-rule:evenodd;clip-rule:evenodd;}
	.st17{fill-rule:evenodd;clip-rule:evenodd;fill:#F2CAA9;}
	.st18{fill-rule:evenodd;clip-rule:evenodd;fill:#3F73A1;}
	.st19{fill-rule:evenodd;clip-rule:evenodd;fill:#FFCD61;}
	.st20{fill-rule:evenodd;clip-rule:evenodd;fill:#FFAE00;}
	.st21{fill-rule:evenodd;clip-rule:evenodd;fill:#886734;}
	.st22{fill-rule:evenodd;clip-rule:evenodd;fill:#694F28;}
	.st23{fill-rule:evenodd;clip-rule:evenodd;fill:#BD9D6E;}
	.st24{fill-rule:evenodd;clip-rule:evenodd;fill:#F9A818;}
	.st25{fill-rule:evenodd;clip-rule:evenodd;fill:#5896CC;}
	.st26{fill:#4C8EB4;}
	.st27{fill:#2C577D;}
	.st28{fill:#F9A818;}
	.st29{fill-rule:evenodd;clip-rule:evenodd;fill:#2C577D;}
	.st30{fill-rule:evenodd;clip-rule:evenodd;fill:#F2837B;}
	.st31{fill-rule:evenodd;clip-rule:evenodd;fill:#EE4E42;}
	.st32{fill-rule:evenodd;clip-rule:evenodd;fill:#FFEABD;}
	.st33{fill:#444242;}
	.st34{opacity:0.25;fill:#444444;}
	.st35{fill:#FFFFFF;stroke:#BFBFBF;stroke-width:0.2217;stroke-miterlimit:10;}
	.st36{fill:#ED1941;}
	.st37{fill:none;stroke:#9A999E;stroke-width:0.2291;stroke-miterlimit:10;}
	.st38{fill:#F1F2F2;}
	.st39{fill:#211915;}
	.st40{fill:#FF6EDC;}
	.st41{fill:#CD2849;stroke:#444444;stroke-width:0.2291;stroke-miterlimit:10;}
	.st42{clip-path:url(#SVGID_4_);}
	.st43{clip-path:url(#SVGID_8_);}
	.st44{clip-path:url(#SVGID_12_);}
	.st45{clip-path:url(#SVGID_16_);}
	.st46{clip-path:url(#SVGID_20_);}
	.st47{clip-path:url(#SVGID_24_);}
	.st48{clip-path:url(#SVGID_28_);}
	.st49{clip-path:url(#SVGID_32_);}
	.st50{clip-path:url(#SVGID_36_);}
	.st51{clip-path:url(#SVGID_40_);}
	.st52{clip-path:url(#SVGID_44_);}
	.st53{clip-path:url(#SVGID_48_);}
	.st54{fill:none;stroke:#000000;stroke-width:0.25;stroke-miterlimit:10;}
</style>
<g>
	<path class="st3" d="M18.2,7.4h-1.8c-0.3,0-0.5-0.2-0.6-0.4c-0.1-0.3-0.1-0.5,0.1-0.7L17.1,5c0.2-0.2,0.3-0.4,0.3-0.7
		c0-0.3-0.1-0.5-0.3-0.7L15.5,2c-0.4-0.4-1-0.4-1.4,0l-1.3,1.3c-0.2,0.2-0.5,0.3-0.7,0.1c-0.3-0.1-0.4-0.3-0.4-0.6V1
		c0-0.5-0.4-1-1-1H8.4c-0.5,0-1,0.4-1,1v1.8c0,0.3-0.2,0.5-0.4,0.6C6.8,3.5,6.5,3.5,6.3,3.3L5,2C4.6,1.6,4,1.6,3.6,2L2,3.6
		C1.8,3.8,1.7,4,1.7,4.3C1.7,4.6,1.8,4.8,2,5l1.3,1.3C3.5,6.5,3.5,6.8,3.4,7C3.3,7.3,3.1,7.4,2.8,7.4H1c-0.5,0-1,0.4-1,1v2.3
		c0,0.5,0.4,1,1,1h1.8c0.3,0,0.5,0.2,0.6,0.4c0.1,0.3,0.1,0.5-0.1,0.7L2,14.1c-0.2,0.2-0.3,0.4-0.3,0.7c0,0.3,0.1,0.5,0.3,0.7
		l1.6,1.6c0.4,0.4,1,0.4,1.4,0l1.3-1.3c0.2-0.2,0.5-0.3,0.7-0.1c0.3,0.1,0.4,0.3,0.4,0.6v1.8c0,0.5,0.4,1,1,1h2.3c0.5,0,1-0.4,1-1
		v-1.8c0-0.3,0.2-0.5,0.4-0.6c0.3-0.1,0.5-0.1,0.7,0.1l1.3,1.3c0.4,0.4,1,0.4,1.4,0l1.6-1.6c0.2-0.2,0.3-0.4,0.3-0.7
		c0-0.3-0.1-0.5-0.3-0.7l-1.3-1.3c-0.2-0.2-0.3-0.5-0.1-0.7c0.1-0.3,0.3-0.4,0.6-0.4h1.8c0.5,0,1-0.4,1-1V8.4
		C19.1,7.9,18.7,7.4,18.2,7.4L18.2,7.4z M18.4,10.7c0,0.2-0.1,0.3-0.3,0.3h-1.8c-0.6,0-1.1,0.3-1.3,0.9c-0.2,0.5-0.1,1.1,0.3,1.5
		l1.3,1.3c0.1,0.1,0.1,0.3,0,0.4L15,16.6c-0.1,0.1-0.3,0.1-0.4,0l-1.3-1.3c-0.4-0.4-1-0.5-1.5-0.3c-0.5,0.2-0.9,0.7-0.9,1.3v1.8
		c0,0.2-0.1,0.3-0.3,0.3H8.4c-0.2,0-0.3-0.1-0.3-0.3v-1.8c0-0.6-0.3-1.1-0.9-1.3C7.1,15,6.9,15,6.7,15c-0.4,0-0.7,0.1-1,0.4
		l-1.3,1.3c-0.1,0.1-0.3,0.1-0.4,0L2.5,15c-0.1-0.1-0.1-0.3,0-0.4l1.3-1.3c0.4-0.4,0.5-1,0.3-1.5C3.8,11.3,3.4,11,2.8,11H1
		c-0.2,0-0.3-0.1-0.3-0.3V8.4c0-0.2,0.1-0.3,0.3-0.3h1.8c0.6,0,1.1-0.3,1.3-0.9c0.2-0.5,0.1-1.1-0.3-1.5L2.5,4.5
		c-0.1-0.1-0.1-0.3,0-0.4l1.6-1.6c0.1-0.1,0.3-0.1,0.4,0l1.3,1.3c0.4,0.4,1,0.5,1.5,0.3c0.5-0.2,0.9-0.7,0.9-1.3V1
		c0-0.2,0.1-0.3,0.3-0.3h2.3C10.9,0.7,11,0.8,11,1v1.8c0,0.6,0.3,1.1,0.9,1.3c0.5,0.2,1.1,0.1,1.5-0.3l1.3-1.3
		c0.1-0.1,0.3-0.1,0.4,0l1.6,1.6c0.1,0.1,0.1,0.3,0,0.4l-1.3,1.3c-0.4,0.4-0.5,1-0.3,1.5c0.2,0.5,0.7,0.9,1.3,0.9h1.8
		c0.2,0,0.3,0.1,0.3,0.3V10.7z M18.4,10.7"/>
	<path class="st3" d="M9.6,6.4c-1.8,0-3.2,1.4-3.2,3.2c0,1.8,1.4,3.2,3.2,3.2c1.8,0,3.2-1.4,3.2-3.2C12.8,7.8,11.3,6.4,9.6,6.4
		L9.6,6.4z M9.6,12c-1.4,0-2.5-1.1-2.5-2.5c0-1.4,1.1-2.5,2.5-2.5c1.4,0,2.5,1.1,2.5,2.5C12,10.9,10.9,12,9.6,12L9.6,12z M9.6,12"/>
</g>
</svg>
